<svg xmlns="http://www.w3.org/2000/svg" xmlns:xlink="http://www.w3.org/1999/xlink" width="1600" zoomAndPan="magnify" viewBox="0 0 1200 899.99999" height="1200" preserveAspectRatio="xMidYMid meet" version="1.0"><defs><clipPath id="9a5daaefa1"><path d="M 0 356.25 L 360 356.25 L 360 716 L 0 716 Z M 0 356.25 " clip-rule="nonzero"/></clipPath><clipPath id="06523b91df"><path d="M 0 713.25 L 360 713.25 L 360 900 L 0 900 Z M 0 713.25 " clip-rule="nonzero"/></clipPath><clipPath id="4838287085"><path d="M 356.25 0 L 716 0 L 716 360 L 356.25 360 Z M 356.25 0 " clip-rule="nonzero"/></clipPath><clipPath id="03c08c2221"><path d="M 711.75 0 L 1071.75 0 L 1071.75 360 L 711.75 360 Z M 711.75 0 " clip-rule="nonzero"/></clipPath><clipPath id="b0b83ae6ab"><path d="M 1070.25 0 L 1200 0 L 1200 357.75 L 1070.25 357.75 Z M 1070.25 0 " clip-rule="nonzero"/></clipPath><clipPath id="6c40b2ff9a"><path d="M 356.25 357 L 716 357 L 716 717 L 356.25 717 Z M 356.25 357 " clip-rule="nonzero"/></clipPath><clipPath id="da4cd93e5f"><path d="M 356.25 712.5 L 716 712.5 L 716 900 L 356.25 900 Z M 356.25 712.5 " clip-rule="nonzero"/></clipPath><clipPath id="b2df230212"><path d="M 711.75 355.5 L 1071.75 355.5 L 1071.75 715.5 L 711.75 715.5 Z M 711.75 355.5 " clip-rule="nonzero"/></clipPath><clipPath id="5e4eaf193b"><path d="M 1068.75 355.5 L 1200 355.5 L 1200 715.5 L 1068.75 715.5 Z M 1068.75 355.5 " clip-rule="nonzero"/></clipPath><clipPath id="767e2a21f6"><path d="M 713.25 712.5 L 1073 712.5 L 1073 900 L 713.25 900 Z M 713.25 712.5 " clip-rule="nonzero"/></clipPath><clipPath id="f2133a9caa"><path d="M 1068.75 712.5 L 1200 712.5 L 1200 900 L 1068.75 900 Z M 1068.75 712.5 " clip-rule="nonzero"/></clipPath></defs><rect x="-120" width="1440" fill="#ffffff" y="-89.999999" height="1079.999988" fill-opacity="1"/><rect x="-120" width="1440" fill="#ffffff" y="-89.999999" height="1079.999988" fill-opacity="1"/><rect x="-120" width="1440" fill="#415d43" y="-89.999999" height="1079.999988" fill-opacity="1"/><path fill="#111d13" d="M 357.628906 122.621094 L 359.722656 120.527344 L 357.628906 118.433594 L 300.449219 61.25 L 359.722656 1.976562 L 357.628906 -0.117188 L 298.351562 59.15625 L 239.078125 -0.117188 L 236.984375 1.976562 L 296.257812 61.25 L 239.078125 118.433594 L 120.527344 -0.117188 L 118.433594 1.976562 L 61.25 59.15625 L 1.976562 -0.117188 L -0.117188 1.976562 L 59.15625 61.25 L -0.117188 120.527344 L 1.976562 122.621094 L 61.25 63.347656 L 118.433594 120.527344 L -0.117188 239.078125 L 59.15625 298.351562 L -0.117188 357.628906 L 1.976562 359.722656 L 61.25 300.449219 L 120.527344 359.722656 L 122.621094 357.628906 L 63.347656 298.351562 L 120.527344 241.171875 L 238.027344 358.675781 L 239.078125 359.722656 L 298.351562 300.453125 L 356.578125 358.675781 L 357.628906 359.722656 L 359.722656 357.628906 L 300.453125 298.351562 L 358.675781 240.128906 L 359.722656 239.078125 L 357.628906 236.984375 L 298.351562 296.253906 L 241.175781 239.078125 Z M 241.171875 120.527344 L 298.351562 63.347656 L 355.535156 120.527344 L 239.078125 236.980469 L 181.898438 179.800781 Z M 63.347656 61.25 L 120.527344 4.070312 L 236.984375 120.527344 L 179.800781 177.707031 L 120.527344 118.433594 Z M 61.25 296.257812 L 4.070312 239.078125 L 120.527344 122.621094 L 177.707031 179.800781 L 120.527344 236.984375 L 118.433594 239.078125 Z M 239.078125 355.53125 L 122.621094 239.078125 L 179.800781 181.898438 L 238.027344 240.125 L 239.058594 241.152344 L 296.253906 298.351562 Z M 239.078125 355.53125 " fill-opacity="1" fill-rule="nonzero"/><g clip-path="url(#9a5daaefa1)"><path fill="#111d13" d="M 357.628906 478.871094 L 359.722656 476.777344 L 357.628906 474.683594 L 300.449219 417.5 L 359.722656 358.226562 L 357.628906 356.132812 L 298.351562 415.40625 L 239.078125 356.132812 L 236.984375 358.226562 L 296.257812 417.5 L 239.078125 474.683594 L 120.527344 356.132812 L 118.433594 358.226562 L 61.25 415.40625 L 1.976562 356.132812 L -0.117188 358.226562 L 59.15625 417.5 L -0.117188 476.777344 L 1.976562 478.871094 L 61.25 419.597656 L 118.433594 476.777344 L -0.117188 595.328125 L 59.15625 654.601562 L -0.117188 713.878906 L 1.976562 715.972656 L 61.25 656.699219 L 120.527344 715.972656 L 122.621094 713.878906 L 63.347656 654.601562 L 120.527344 597.421875 L 238.027344 714.925781 L 239.078125 715.972656 L 298.351562 656.703125 L 356.578125 714.925781 L 357.628906 715.972656 L 359.722656 713.878906 L 300.453125 654.601562 L 358.675781 596.378906 L 359.722656 595.328125 L 357.628906 593.234375 L 298.351562 652.503906 L 241.175781 595.328125 Z M 241.171875 476.777344 L 298.351562 419.597656 L 355.535156 476.777344 L 239.078125 593.230469 L 181.898438 536.050781 Z M 63.347656 417.5 L 120.527344 360.320312 L 236.984375 476.777344 L 179.800781 533.957031 L 120.527344 474.683594 Z M 61.25 652.507812 L 4.070312 595.328125 L 120.527344 478.871094 L 177.707031 536.050781 L 120.527344 593.234375 L 118.433594 595.328125 Z M 239.078125 711.78125 L 122.621094 595.328125 L 179.800781 538.148438 L 238.027344 596.375 L 239.058594 597.402344 L 296.253906 654.601562 Z M 239.078125 711.78125 " fill-opacity="1" fill-rule="nonzero"/></g><g clip-path="url(#06523b91df)"><path fill="#111d13" d="M 357.628906 835.871094 L 359.722656 833.777344 L 357.628906 831.683594 L 300.449219 774.5 L 359.722656 715.226562 L 357.628906 713.132812 L 298.351562 772.40625 L 239.078125 713.132812 L 236.984375 715.226562 L 296.257812 774.5 L 239.078125 831.683594 L 120.527344 713.132812 L 118.433594 715.226562 L 61.25 772.40625 L 1.976562 713.132812 L -0.117188 715.226562 L 59.15625 774.5 L -0.117188 833.777344 L 1.976562 835.871094 L 61.25 776.597656 L 118.433594 833.777344 L -0.117188 952.328125 L 59.15625 1011.601562 L -0.117188 1070.878906 L 1.976562 1072.972656 L 61.25 1013.699219 L 120.527344 1072.972656 L 122.621094 1070.878906 L 63.347656 1011.601562 L 120.527344 954.421875 L 238.027344 1071.925781 L 239.078125 1072.972656 L 298.351562 1013.703125 L 356.578125 1071.925781 L 357.628906 1072.972656 L 359.722656 1070.878906 L 300.453125 1011.601562 L 358.675781 953.378906 L 359.722656 952.328125 L 357.628906 950.234375 L 298.351562 1009.503906 L 241.175781 952.328125 Z M 241.171875 833.777344 L 298.351562 776.597656 L 355.535156 833.777344 L 239.078125 950.230469 L 181.898438 893.050781 Z M 63.347656 774.5 L 120.527344 717.320312 L 236.984375 833.777344 L 179.800781 890.957031 L 120.527344 831.683594 Z M 61.25 1009.507812 L 4.070312 952.328125 L 120.527344 835.871094 L 177.707031 893.050781 L 120.527344 950.234375 L 118.433594 952.328125 Z M 239.078125 1068.78125 L 122.621094 952.328125 L 179.800781 895.148438 L 238.027344 953.375 L 239.058594 954.402344 L 296.253906 1011.601562 Z M 239.078125 1068.78125 " fill-opacity="1" fill-rule="nonzero"/></g><g clip-path="url(#4838287085)"><path fill="#111d13" d="M 713.878906 122.621094 L 715.972656 120.527344 L 713.878906 118.433594 L 656.699219 61.25 L 715.972656 1.976562 L 713.878906 -0.117188 L 654.601562 59.15625 L 595.328125 -0.117188 L 593.234375 1.976562 L 652.507812 61.25 L 595.328125 118.433594 L 476.777344 -0.117188 L 474.683594 1.976562 L 417.5 59.15625 L 358.226562 -0.117188 L 356.132812 1.976562 L 415.40625 61.25 L 356.132812 120.527344 L 358.226562 122.621094 L 417.5 63.347656 L 474.683594 120.527344 L 356.132812 239.078125 L 415.40625 298.351562 L 356.132812 357.628906 L 358.226562 359.722656 L 417.5 300.449219 L 476.777344 359.722656 L 478.871094 357.628906 L 419.597656 298.351562 L 476.777344 241.171875 L 594.277344 358.675781 L 595.328125 359.722656 L 654.601562 300.453125 L 712.828125 358.675781 L 713.878906 359.722656 L 715.972656 357.628906 L 656.703125 298.351562 L 714.925781 240.128906 L 715.972656 239.078125 L 713.878906 236.984375 L 654.601562 296.253906 L 597.425781 239.078125 Z M 597.421875 120.527344 L 654.601562 63.347656 L 711.785156 120.527344 L 595.328125 236.980469 L 538.148438 179.800781 Z M 419.597656 61.25 L 476.777344 4.070312 L 593.234375 120.527344 L 536.050781 177.707031 L 476.777344 118.433594 Z M 417.5 296.257812 L 360.320312 239.078125 L 476.777344 122.621094 L 533.957031 179.800781 L 476.777344 236.984375 L 474.683594 239.078125 Z M 595.328125 355.53125 L 478.871094 239.078125 L 536.050781 181.898438 L 594.277344 240.125 L 595.308594 241.152344 L 652.503906 298.351562 Z M 595.328125 355.53125 " fill-opacity="1" fill-rule="nonzero"/></g><g clip-path="url(#03c08c2221)"><path fill="#111d13" d="M 1069.378906 122.621094 L 1071.472656 120.527344 L 1069.378906 118.433594 L 1012.199219 61.25 L 1071.472656 1.976562 L 1069.378906 -0.117188 L 1010.101562 59.15625 L 950.828125 -0.117188 L 948.734375 1.976562 L 1008.007812 61.25 L 950.828125 118.433594 L 832.277344 -0.117188 L 830.183594 1.976562 L 773 59.15625 L 713.726562 -0.117188 L 711.632812 1.976562 L 770.90625 61.25 L 711.632812 120.527344 L 713.726562 122.621094 L 773 63.347656 L 830.183594 120.527344 L 711.632812 239.078125 L 770.90625 298.351562 L 711.632812 357.628906 L 713.726562 359.722656 L 773 300.449219 L 832.277344 359.722656 L 834.371094 357.628906 L 775.097656 298.351562 L 832.277344 241.171875 L 949.777344 358.675781 L 950.828125 359.722656 L 1010.101562 300.453125 L 1068.328125 358.675781 L 1069.378906 359.722656 L 1071.472656 357.628906 L 1012.203125 298.351562 L 1070.425781 240.128906 L 1071.472656 239.078125 L 1069.378906 236.984375 L 1010.101562 296.253906 L 952.925781 239.078125 Z M 952.921875 120.527344 L 1010.101562 63.347656 L 1067.285156 120.527344 L 950.828125 236.980469 L 893.648438 179.800781 Z M 775.097656 61.25 L 832.277344 4.070312 L 948.734375 120.527344 L 891.550781 177.707031 L 832.277344 118.433594 Z M 773 296.257812 L 715.820312 239.078125 L 832.277344 122.621094 L 889.457031 179.800781 L 832.277344 236.984375 L 830.183594 239.078125 Z M 950.828125 355.53125 L 834.371094 239.078125 L 891.550781 181.898438 L 949.777344 240.125 L 950.808594 241.152344 L 1008.003906 298.351562 Z M 950.828125 355.53125 " fill-opacity="1" fill-rule="nonzero"/></g><g clip-path="url(#b0b83ae6ab)"><path fill="#111d13" d="M 1427.878906 120.371094 L 1429.972656 118.277344 L 1427.878906 116.183594 L 1370.699219 59 L 1429.972656 -0.273438 L 1427.878906 -2.367188 L 1368.601562 56.90625 L 1309.328125 -2.367188 L 1307.234375 -0.273438 L 1366.507812 59 L 1309.328125 116.183594 L 1190.777344 -2.367188 L 1188.683594 -0.273438 L 1131.5 56.90625 L 1072.226562 -2.367188 L 1070.132812 -0.273438 L 1129.40625 59 L 1070.132812 118.277344 L 1072.226562 120.371094 L 1131.5 61.097656 L 1188.683594 118.277344 L 1070.132812 236.828125 L 1129.40625 296.101562 L 1070.132812 355.378906 L 1072.226562 357.472656 L 1131.5 298.199219 L 1190.777344 357.472656 L 1192.871094 355.378906 L 1133.597656 296.101562 L 1190.777344 238.921875 L 1308.277344 356.425781 L 1309.328125 357.472656 L 1368.601562 298.203125 L 1426.828125 356.425781 L 1427.878906 357.472656 L 1429.972656 355.378906 L 1370.703125 296.101562 L 1428.925781 237.878906 L 1429.972656 236.828125 L 1427.878906 234.734375 L 1368.601562 294.003906 L 1311.425781 236.828125 Z M 1311.421875 118.277344 L 1368.601562 61.097656 L 1425.785156 118.277344 L 1309.328125 234.730469 L 1252.148438 177.550781 Z M 1133.597656 59 L 1190.777344 1.820312 L 1307.234375 118.277344 L 1250.050781 175.457031 L 1190.777344 116.183594 Z M 1131.5 294.007812 L 1074.320312 236.828125 L 1190.777344 120.371094 L 1247.957031 177.550781 L 1190.777344 234.734375 L 1188.683594 236.828125 Z M 1309.328125 353.28125 L 1192.871094 236.828125 L 1250.050781 179.648438 L 1308.277344 237.875 L 1309.308594 238.902344 L 1366.503906 296.101562 Z M 1309.328125 353.28125 " fill-opacity="1" fill-rule="nonzero"/></g><g clip-path="url(#6c40b2ff9a)"><path fill="#111d13" d="M 713.878906 479.621094 L 715.972656 477.527344 L 713.878906 475.433594 L 656.699219 418.25 L 715.972656 358.976562 L 713.878906 356.882812 L 654.601562 416.15625 L 595.328125 356.882812 L 593.234375 358.976562 L 652.507812 418.25 L 595.328125 475.433594 L 476.777344 356.882812 L 474.683594 358.976562 L 417.5 416.15625 L 358.226562 356.882812 L 356.132812 358.976562 L 415.40625 418.25 L 356.132812 477.527344 L 358.226562 479.621094 L 417.5 420.347656 L 474.683594 477.527344 L 356.132812 596.078125 L 415.40625 655.351562 L 356.132812 714.628906 L 358.226562 716.722656 L 417.5 657.449219 L 476.777344 716.722656 L 478.871094 714.628906 L 419.597656 655.351562 L 476.777344 598.171875 L 594.277344 715.675781 L 595.328125 716.722656 L 654.601562 657.453125 L 712.828125 715.675781 L 713.878906 716.722656 L 715.972656 714.628906 L 656.703125 655.351562 L 714.925781 597.128906 L 715.972656 596.078125 L 713.878906 593.984375 L 654.601562 653.253906 L 597.425781 596.078125 Z M 597.421875 477.527344 L 654.601562 420.347656 L 711.785156 477.527344 L 595.328125 593.980469 L 538.148438 536.800781 Z M 419.597656 418.25 L 476.777344 361.070312 L 593.234375 477.527344 L 536.050781 534.707031 L 476.777344 475.433594 Z M 417.5 653.257812 L 360.320312 596.078125 L 476.777344 479.621094 L 533.957031 536.800781 L 476.777344 593.984375 L 474.683594 596.078125 Z M 595.328125 712.53125 L 478.871094 596.078125 L 536.050781 538.898438 L 594.277344 597.125 L 595.308594 598.152344 L 652.503906 655.351562 Z M 595.328125 712.53125 " fill-opacity="1" fill-rule="nonzero"/></g><g clip-path="url(#da4cd93e5f)"><path fill="#111d13" d="M 713.878906 835.121094 L 715.972656 833.027344 L 713.878906 830.933594 L 656.699219 773.75 L 715.972656 714.476562 L 713.878906 712.382812 L 654.601562 771.65625 L 595.328125 712.382812 L 593.234375 714.476562 L 652.507812 773.75 L 595.328125 830.933594 L 476.777344 712.382812 L 474.683594 714.476562 L 417.5 771.65625 L 358.226562 712.382812 L 356.132812 714.476562 L 415.40625 773.75 L 356.132812 833.027344 L 358.226562 835.121094 L 417.5 775.847656 L 474.683594 833.027344 L 356.132812 951.578125 L 415.40625 1010.851562 L 356.132812 1070.128906 L 358.226562 1072.222656 L 417.5 1012.949219 L 476.777344 1072.222656 L 478.871094 1070.128906 L 419.597656 1010.851562 L 476.777344 953.671875 L 594.277344 1071.175781 L 595.328125 1072.222656 L 654.601562 1012.953125 L 712.828125 1071.175781 L 713.878906 1072.222656 L 715.972656 1070.128906 L 656.703125 1010.851562 L 714.925781 952.628906 L 715.972656 951.578125 L 713.878906 949.484375 L 654.601562 1008.753906 L 597.425781 951.578125 Z M 597.421875 833.027344 L 654.601562 775.847656 L 711.785156 833.027344 L 595.328125 949.480469 L 538.148438 892.300781 Z M 419.597656 773.75 L 476.777344 716.570312 L 593.234375 833.027344 L 536.050781 890.207031 L 476.777344 830.933594 Z M 417.5 1008.757812 L 360.320312 951.578125 L 476.777344 835.121094 L 533.957031 892.300781 L 476.777344 949.484375 L 474.683594 951.578125 Z M 595.328125 1068.03125 L 478.871094 951.578125 L 536.050781 894.398438 L 594.277344 952.625 L 595.308594 953.652344 L 652.503906 1010.851562 Z M 595.328125 1068.03125 " fill-opacity="1" fill-rule="nonzero"/></g><g clip-path="url(#b2df230212)"><path fill="#111d13" d="M 1069.378906 478.121094 L 1071.472656 476.027344 L 1069.378906 473.933594 L 1012.199219 416.75 L 1071.472656 357.476562 L 1069.378906 355.382812 L 1010.101562 414.65625 L 950.828125 355.382812 L 948.734375 357.476562 L 1008.007812 416.75 L 950.828125 473.933594 L 832.277344 355.382812 L 830.183594 357.476562 L 773 414.65625 L 713.726562 355.382812 L 711.632812 357.476562 L 770.90625 416.75 L 711.632812 476.027344 L 713.726562 478.121094 L 773 418.847656 L 830.183594 476.027344 L 711.632812 594.578125 L 770.90625 653.851562 L 711.632812 713.128906 L 713.726562 715.222656 L 773 655.949219 L 832.277344 715.222656 L 834.371094 713.128906 L 775.097656 653.851562 L 832.277344 596.671875 L 949.777344 714.175781 L 950.828125 715.222656 L 1010.101562 655.953125 L 1068.328125 714.175781 L 1069.378906 715.222656 L 1071.472656 713.128906 L 1012.203125 653.851562 L 1070.425781 595.628906 L 1071.472656 594.578125 L 1069.378906 592.484375 L 1010.101562 651.753906 L 952.925781 594.578125 Z M 952.921875 476.027344 L 1010.101562 418.847656 L 1067.285156 476.027344 L 950.828125 592.480469 L 893.648438 535.300781 Z M 775.097656 416.75 L 832.277344 359.570312 L 948.734375 476.027344 L 891.550781 533.207031 L 832.277344 473.933594 Z M 773 651.757812 L 715.820312 594.578125 L 832.277344 478.121094 L 889.457031 535.300781 L 832.277344 592.484375 L 830.183594 594.578125 Z M 950.828125 711.03125 L 834.371094 594.578125 L 891.550781 537.398438 L 949.777344 595.625 L 950.808594 596.652344 L 1008.003906 653.851562 Z M 950.828125 711.03125 " fill-opacity="1" fill-rule="nonzero"/></g><g clip-path="url(#5e4eaf193b)"><path fill="#111d13" d="M 1426.378906 478.121094 L 1428.472656 476.027344 L 1426.378906 473.933594 L 1369.199219 416.75 L 1428.472656 357.476562 L 1426.378906 355.382812 L 1367.101562 414.65625 L 1307.828125 355.382812 L 1305.734375 357.476562 L 1365.007812 416.75 L 1307.828125 473.933594 L 1189.277344 355.382812 L 1187.183594 357.476562 L 1130 414.65625 L 1070.726562 355.382812 L 1068.632812 357.476562 L 1127.90625 416.75 L 1068.632812 476.027344 L 1070.726562 478.121094 L 1130 418.847656 L 1187.183594 476.027344 L 1068.632812 594.578125 L 1127.90625 653.851562 L 1068.632812 713.128906 L 1070.726562 715.222656 L 1130 655.949219 L 1189.277344 715.222656 L 1191.371094 713.128906 L 1132.097656 653.851562 L 1189.277344 596.671875 L 1306.777344 714.175781 L 1307.828125 715.222656 L 1367.101562 655.953125 L 1425.328125 714.175781 L 1426.378906 715.222656 L 1428.472656 713.128906 L 1369.203125 653.851562 L 1427.425781 595.628906 L 1428.472656 594.578125 L 1426.378906 592.484375 L 1367.101562 651.753906 L 1309.925781 594.578125 Z M 1309.921875 476.027344 L 1367.101562 418.847656 L 1424.285156 476.027344 L 1307.828125 592.480469 L 1250.648438 535.300781 Z M 1132.097656 416.75 L 1189.277344 359.570312 L 1305.734375 476.027344 L 1248.550781 533.207031 L 1189.277344 473.933594 Z M 1130 651.757812 L 1072.820312 594.578125 L 1189.277344 478.121094 L 1246.457031 535.300781 L 1189.277344 592.484375 L 1187.183594 594.578125 Z M 1307.828125 711.03125 L 1191.371094 594.578125 L 1248.550781 537.398438 L 1306.777344 595.625 L 1307.808594 596.652344 L 1365.003906 653.851562 Z M 1307.828125 711.03125 " fill-opacity="1" fill-rule="nonzero"/></g><g clip-path="url(#767e2a21f6)"><path fill="#111d13" d="M 1070.878906 835.121094 L 1072.972656 833.027344 L 1070.878906 830.933594 L 1013.699219 773.75 L 1072.972656 714.476562 L 1070.878906 712.382812 L 1011.601562 771.65625 L 952.328125 712.382812 L 950.234375 714.476562 L 1009.507812 773.75 L 952.328125 830.933594 L 833.777344 712.382812 L 831.683594 714.476562 L 774.5 771.65625 L 715.226562 712.382812 L 713.132812 714.476562 L 772.40625 773.75 L 713.132812 833.027344 L 715.226562 835.121094 L 774.5 775.847656 L 831.683594 833.027344 L 713.132812 951.578125 L 772.40625 1010.851562 L 713.132812 1070.128906 L 715.226562 1072.222656 L 774.5 1012.949219 L 833.777344 1072.222656 L 835.871094 1070.128906 L 776.597656 1010.851562 L 833.777344 953.671875 L 951.277344 1071.175781 L 952.328125 1072.222656 L 1011.601562 1012.953125 L 1069.828125 1071.175781 L 1070.878906 1072.222656 L 1072.972656 1070.128906 L 1013.703125 1010.851562 L 1071.925781 952.628906 L 1072.972656 951.578125 L 1070.878906 949.484375 L 1011.601562 1008.753906 L 954.425781 951.578125 Z M 954.421875 833.027344 L 1011.601562 775.847656 L 1068.785156 833.027344 L 952.328125 949.480469 L 895.148438 892.300781 Z M 776.597656 773.75 L 833.777344 716.570312 L 950.234375 833.027344 L 893.050781 890.207031 L 833.777344 830.933594 Z M 774.5 1008.757812 L 717.320312 951.578125 L 833.777344 835.121094 L 890.957031 892.300781 L 833.777344 949.484375 L 831.683594 951.578125 Z M 952.328125 1068.03125 L 835.871094 951.578125 L 893.050781 894.398438 L 951.277344 952.625 L 952.308594 953.652344 L 1009.503906 1010.851562 Z M 952.328125 1068.03125 " fill-opacity="1" fill-rule="nonzero"/></g><g clip-path="url(#f2133a9caa)"><path fill="#111d13" d="M 1426.378906 835.121094 L 1428.472656 833.027344 L 1426.378906 830.933594 L 1369.199219 773.75 L 1428.472656 714.476562 L 1426.378906 712.382812 L 1367.101562 771.65625 L 1307.828125 712.382812 L 1305.734375 714.476562 L 1365.007812 773.75 L 1307.828125 830.933594 L 1189.277344 712.382812 L 1187.183594 714.476562 L 1130 771.65625 L 1070.726562 712.382812 L 1068.632812 714.476562 L 1127.90625 773.75 L 1068.632812 833.027344 L 1070.726562 835.121094 L 1130 775.847656 L 1187.183594 833.027344 L 1068.632812 951.578125 L 1127.90625 1010.851562 L 1068.632812 1070.128906 L 1070.726562 1072.222656 L 1130 1012.949219 L 1189.277344 1072.222656 L 1191.371094 1070.128906 L 1132.097656 1010.851562 L 1189.277344 953.671875 L 1306.777344 1071.175781 L 1307.828125 1072.222656 L 1367.101562 1012.953125 L 1425.328125 1071.175781 L 1426.378906 1072.222656 L 1428.472656 1070.128906 L 1369.203125 1010.851562 L 1427.425781 952.628906 L 1428.472656 951.578125 L 1426.378906 949.484375 L 1367.101562 1008.753906 L 1309.925781 951.578125 Z M 1309.921875 833.027344 L 1367.101562 775.847656 L 1424.285156 833.027344 L 1307.828125 949.480469 L 1250.648438 892.300781 Z M 1132.097656 773.75 L 1189.277344 716.570312 L 1305.734375 833.027344 L 1248.550781 890.207031 L 1189.277344 830.933594 Z M 1130 1008.757812 L 1072.820312 951.578125 L 1189.277344 835.121094 L 1246.457031 892.300781 L 1189.277344 949.484375 L 1187.183594 951.578125 Z M 1307.828125 1068.03125 L 1191.371094 951.578125 L 1248.550781 894.398438 L 1306.777344 952.625 L 1307.808594 953.652344 L 1365.003906 1010.851562 Z M 1307.828125 1068.03125 " fill-opacity="1" fill-rule="nonzero"/></g></svg>