<?xml version="1.0" encoding="UTF-8"?>
<svg xmlns="http://www.w3.org/2000/svg" xmlns:xlink="http://www.w3.org/1999/xlink" viewBox="0 0 728 429">
  <defs>
    <style>
      .cls-1 {
        fill: none;
      }

      .cls-2 {
        fill: url(#linear-gradient);
      }

      .cls-3, .cls-4 {
        fill: #fff;
      }

      .cls-5 {
        fill: #809281;
      }

      .cls-6 {
        fill: #c0cac1;
      }

      .cls-7 {
        fill: #a9c1ac;
      }

      .cls-8 {
        fill: #415d43;
      }

      .cls-9 {
        fill: #709775;
      }

      .cls-10 {
        fill: #94b197;
      }

      .cls-11 {
        fill: url(#linear-gradient-137);
      }

      .cls-12 {
        fill: url(#linear-gradient-133);
      }

      .cls-13 {
        fill: url(#linear-gradient-132);
      }

      .cls-14 {
        fill: url(#linear-gradient-130);
      }

      .cls-15 {
        fill: url(#linear-gradient-135);
      }

      .cls-16 {
        fill: url(#linear-gradient-131);
      }

      .cls-17 {
        fill: url(#linear-gradient-136);
      }

      .cls-18 {
        fill: url(#linear-gradient-134);
      }

      .cls-19 {
        fill: url(#linear-gradient-139);
      }

      .cls-20 {
        fill: url(#linear-gradient-138);
      }

      .cls-21 {
        fill: url(#linear-gradient-117);
      }

      .cls-22 {
        fill: url(#linear-gradient-118);
      }

      .cls-23 {
        fill: url(#linear-gradient-111);
      }

      .cls-24 {
        fill: url(#linear-gradient-112);
      }

      .cls-25 {
        fill: url(#linear-gradient-127);
      }

      .cls-26 {
        fill: url(#linear-gradient-128);
      }

      .cls-27 {
        fill: url(#linear-gradient-110);
      }

      .cls-28 {
        fill: url(#linear-gradient-113);
      }

      .cls-29 {
        fill: url(#linear-gradient-114);
      }

      .cls-30 {
        fill: url(#linear-gradient-115);
      }

      .cls-31 {
        fill: url(#linear-gradient-116);
      }

      .cls-32 {
        fill: url(#linear-gradient-119);
      }

      .cls-33 {
        fill: url(#linear-gradient-106);
      }

      .cls-34 {
        fill: url(#linear-gradient-107);
      }

      .cls-35 {
        fill: url(#linear-gradient-109);
      }

      .cls-36 {
        fill: url(#linear-gradient-108);
      }

      .cls-37 {
        fill: url(#linear-gradient-104);
      }

      .cls-38 {
        fill: url(#linear-gradient-103);
      }

      .cls-39 {
        fill: url(#linear-gradient-102);
      }

      .cls-40 {
        fill: url(#linear-gradient-105);
      }

      .cls-41 {
        fill: url(#linear-gradient-123);
      }

      .cls-42 {
        fill: url(#linear-gradient-129);
      }

      .cls-43 {
        fill: url(#linear-gradient-122);
      }

      .cls-44 {
        fill: url(#linear-gradient-121);
      }

      .cls-45 {
        fill: url(#linear-gradient-101);
      }

      .cls-46 {
        fill: url(#linear-gradient-100);
      }

      .cls-47 {
        fill: url(#linear-gradient-126);
      }

      .cls-48 {
        fill: url(#linear-gradient-125);
      }

      .cls-49 {
        fill: url(#linear-gradient-124);
      }

      .cls-50 {
        fill: url(#linear-gradient-120);
      }

      .cls-51 {
        fill: url(#linear-gradient-141);
      }

      .cls-52 {
        fill: url(#linear-gradient-140);
      }

      .cls-53 {
        fill: url(#linear-gradient-142);
      }

      .cls-4 {
        opacity: .15;
      }

      .cls-54 {
        mix-blend-mode: color-burn;
      }

      .cls-55 {
        fill: url(#linear-gradient-8);
      }

      .cls-56 {
        fill: url(#linear-gradient-9);
      }

      .cls-57 {
        fill: url(#linear-gradient-3);
      }

      .cls-58 {
        fill: url(#linear-gradient-4);
      }

      .cls-59 {
        fill: url(#linear-gradient-2);
      }

      .cls-60 {
        fill: url(#linear-gradient-6);
      }

      .cls-61 {
        fill: url(#linear-gradient-7);
      }

      .cls-62 {
        fill: url(#linear-gradient-5);
      }

      .cls-63 {
        opacity: .2;
      }

      .cls-64 {
        opacity: .3;
      }

      .cls-65 {
        opacity: .5;
      }

      .cls-66 {
        fill: url(#linear-gradient-59);
      }

      .cls-67 {
        fill: url(#linear-gradient-57);
      }

      .cls-68 {
        fill: url(#linear-gradient-58);
      }

      .cls-69 {
        fill: url(#linear-gradient-55);
      }

      .cls-70 {
        fill: url(#linear-gradient-56);
      }

      .cls-71 {
        fill: url(#linear-gradient-53);
      }

      .cls-72 {
        fill: url(#linear-gradient-54);
      }

      .cls-73 {
        fill: url(#linear-gradient-51);
      }

      .cls-74 {
        fill: url(#linear-gradient-52);
      }

      .cls-75 {
        fill: url(#linear-gradient-50);
      }

      .cls-76 {
        fill: url(#linear-gradient-77);
      }

      .cls-77 {
        fill: url(#linear-gradient-78);
      }

      .cls-78 {
        fill: url(#linear-gradient-79);
      }

      .cls-79 {
        fill: url(#linear-gradient-74);
      }

      .cls-80 {
        fill: url(#linear-gradient-75);
      }

      .cls-81 {
        fill: url(#linear-gradient-76);
      }

      .cls-82 {
        fill: url(#linear-gradient-70);
      }

      .cls-83 {
        fill: url(#linear-gradient-71);
      }

      .cls-84 {
        fill: url(#linear-gradient-72);
      }

      .cls-85 {
        fill: url(#linear-gradient-73);
      }

      .cls-86 {
        fill: url(#linear-gradient-68);
      }

      .cls-87 {
        fill: url(#linear-gradient-67);
      }

      .cls-88 {
        fill: url(#linear-gradient-69);
      }

      .cls-89 {
        fill: url(#linear-gradient-64);
      }

      .cls-90 {
        fill: url(#linear-gradient-63);
      }

      .cls-91 {
        fill: url(#linear-gradient-66);
      }

      .cls-92 {
        fill: url(#linear-gradient-65);
      }

      .cls-93 {
        fill: url(#linear-gradient-60);
      }

      .cls-94 {
        fill: url(#linear-gradient-62);
      }

      .cls-95 {
        fill: url(#linear-gradient-61);
      }

      .cls-96 {
        fill: url(#linear-gradient-98);
      }

      .cls-97 {
        fill: url(#linear-gradient-91);
      }

      .cls-98 {
        fill: url(#linear-gradient-95);
      }

      .cls-99 {
        fill: url(#linear-gradient-99);
      }

      .cls-100 {
        fill: url(#linear-gradient-96);
      }

      .cls-101 {
        fill: url(#linear-gradient-97);
      }

      .cls-102 {
        fill: url(#linear-gradient-94);
      }

      .cls-103 {
        fill: url(#linear-gradient-92);
      }

      .cls-104 {
        fill: url(#linear-gradient-93);
      }

      .cls-105 {
        fill: url(#linear-gradient-90);
      }

      .cls-106 {
        fill: url(#linear-gradient-81);
      }

      .cls-107 {
        fill: url(#linear-gradient-80);
      }

      .cls-108 {
        fill: url(#linear-gradient-88);
      }

      .cls-109 {
        fill: url(#linear-gradient-89);
      }

      .cls-110 {
        fill: url(#linear-gradient-87);
      }

      .cls-111 {
        fill: url(#linear-gradient-86);
      }

      .cls-112 {
        fill: url(#linear-gradient-85);
      }

      .cls-113 {
        fill: url(#linear-gradient-84);
      }

      .cls-114 {
        fill: url(#linear-gradient-83);
      }

      .cls-115 {
        fill: url(#linear-gradient-82);
      }

      .cls-116 {
        fill: url(#linear-gradient-41);
      }

      .cls-117 {
        fill: url(#linear-gradient-40);
      }

      .cls-118 {
        fill: url(#linear-gradient-43);
      }

      .cls-119 {
        fill: url(#linear-gradient-42);
      }

      .cls-120 {
        fill: url(#linear-gradient-45);
      }

      .cls-121 {
        fill: url(#linear-gradient-46);
      }

      .cls-122 {
        fill: url(#linear-gradient-44);
      }

      .cls-123 {
        fill: url(#linear-gradient-49);
      }

      .cls-124 {
        fill: url(#linear-gradient-47);
      }

      .cls-125 {
        fill: url(#linear-gradient-48);
      }

      .cls-126 {
        fill: url(#linear-gradient-14);
      }

      .cls-127 {
        fill: url(#linear-gradient-18);
      }

      .cls-128 {
        fill: url(#linear-gradient-22);
      }

      .cls-129 {
        fill: url(#linear-gradient-20);
      }

      .cls-130 {
        fill: url(#linear-gradient-21);
      }

      .cls-131 {
        fill: url(#linear-gradient-23);
      }

      .cls-132 {
        fill: url(#linear-gradient-15);
      }

      .cls-133 {
        fill: url(#linear-gradient-19);
      }

      .cls-134 {
        fill: url(#linear-gradient-16);
      }

      .cls-135 {
        fill: url(#linear-gradient-17);
      }

      .cls-136 {
        fill: url(#linear-gradient-13);
      }

      .cls-137 {
        fill: url(#linear-gradient-12);
      }

      .cls-138 {
        fill: url(#linear-gradient-10);
      }

      .cls-139 {
        fill: url(#linear-gradient-11);
      }

      .cls-140 {
        fill: url(#linear-gradient-27);
      }

      .cls-141 {
        fill: url(#linear-gradient-24);
      }

      .cls-142 {
        fill: url(#linear-gradient-26);
      }

      .cls-143 {
        fill: url(#linear-gradient-38);
      }

      .cls-144 {
        fill: url(#linear-gradient-35);
      }

      .cls-145 {
        fill: url(#linear-gradient-37);
      }

      .cls-146 {
        fill: url(#linear-gradient-34);
      }

      .cls-147 {
        fill: url(#linear-gradient-39);
      }

      .cls-148 {
        fill: url(#linear-gradient-36);
      }

      .cls-149 {
        fill: url(#linear-gradient-25);
      }

      .cls-150 {
        fill: url(#linear-gradient-28);
      }

      .cls-151 {
        fill: url(#linear-gradient-29);
      }

      .cls-152 {
        fill: url(#linear-gradient-33);
      }

      .cls-153 {
        fill: url(#linear-gradient-30);
      }

      .cls-154 {
        fill: url(#linear-gradient-32);
      }

      .cls-155 {
        fill: url(#linear-gradient-31);
      }

      .cls-156 {
        isolation: isolate;
      }
    </style>
    <linearGradient id="linear-gradient" x1="547.88" y1="532.99" x2="180.12" y2="-103.99" gradientUnits="userSpaceOnUse">
      <stop offset="0" stop-color="#8fb996"/>
      <stop offset=".34" stop-color="#96c09c"/>
      <stop offset="1" stop-color="#a1cca5"/>
    </linearGradient>
    <linearGradient id="linear-gradient-2" x1="314.16" y1="426.39" x2="319.39" y2="426.39" gradientUnits="userSpaceOnUse">
      <stop offset="0" stop-color="#111d13"/>
      <stop offset=".09" stop-color="#1b271d"/>
      <stop offset=".25" stop-color="#39433b"/>
      <stop offset=".46" stop-color="#69706a"/>
      <stop offset=".71" stop-color="#abafac"/>
      <stop offset="1" stop-color="#fff"/>
    </linearGradient>
    <linearGradient id="linear-gradient-3" x1="306.67" y1="422.9" x2="318.59" y2="422.9" xlink:href="#linear-gradient-2"/>
    <linearGradient id="linear-gradient-4" x1="299.19" y1="419.48" x2="317.67" y2="419.48" xlink:href="#linear-gradient-2"/>
    <linearGradient id="linear-gradient-5" x1="291.7" y1="416.12" x2="316.64" y2="416.12" xlink:href="#linear-gradient-2"/>
    <linearGradient id="linear-gradient-6" x1="284.22" y1="412.83" x2="315.5" y2="412.83" xlink:href="#linear-gradient-2"/>
    <linearGradient id="linear-gradient-7" x1="276.73" y1="409.68" x2="314.13" y2="409.68" xlink:href="#linear-gradient-2"/>
    <linearGradient id="linear-gradient-8" x1="269.25" y1="406.72" x2="312.42" y2="406.72" xlink:href="#linear-gradient-2"/>
    <linearGradient id="linear-gradient-9" x1="261.76" y1="404" x2="310.28" y2="404" xlink:href="#linear-gradient-2"/>
    <linearGradient id="linear-gradient-10" x1="254.28" y1="401.54" x2="307.67" y2="401.54" xlink:href="#linear-gradient-2"/>
    <linearGradient id="linear-gradient-11" x1="246.79" y1="399.34" x2="304.54" y2="399.34" xlink:href="#linear-gradient-2"/>
    <linearGradient id="linear-gradient-12" x1="239.3" y1="397.4" x2="300.92" y2="397.4" xlink:href="#linear-gradient-2"/>
    <linearGradient id="linear-gradient-13" x1="231.82" y1="395.69" x2="296.84" y2="395.69" xlink:href="#linear-gradient-2"/>
    <linearGradient id="linear-gradient-14" x1="224.33" y1="394.21" x2="292.32" y2="394.21" xlink:href="#linear-gradient-2"/>
    <linearGradient id="linear-gradient-15" x1="216.85" y1="392.96" x2="287.36" y2="392.96" xlink:href="#linear-gradient-2"/>
    <linearGradient id="linear-gradient-16" x1="209.36" y1="391.95" x2="281.97" y2="391.95" xlink:href="#linear-gradient-2"/>
    <linearGradient id="linear-gradient-17" x1="201.88" y1="391.19" x2="276.1" y2="391.19" xlink:href="#linear-gradient-2"/>
    <linearGradient id="linear-gradient-18" x1="194.39" y1="390.71" x2="269.72" y2="390.71" xlink:href="#linear-gradient-2"/>
    <linearGradient id="linear-gradient-19" x1="186.91" y1="390.57" x2="262.71" y2="390.57" xlink:href="#linear-gradient-2"/>
    <linearGradient id="linear-gradient-20" x1="179.42" y1="390.76" x2="254.89" y2="390.76" xlink:href="#linear-gradient-2"/>
    <linearGradient id="linear-gradient-21" x1="171.94" y1="391.43" x2="246.12" y2="391.43" xlink:href="#linear-gradient-2"/>
    <linearGradient id="linear-gradient-22" x1="164.45" y1="392.76" x2="236.1" y2="392.76" xlink:href="#linear-gradient-2"/>
    <linearGradient id="linear-gradient-23" x1="156.97" y1="394.91" x2="224.51" y2="394.91" xlink:href="#linear-gradient-2"/>
    <linearGradient id="linear-gradient-24" x1="149.48" y1="398.01" x2="211.12" y2="398.01" xlink:href="#linear-gradient-2"/>
    <linearGradient id="linear-gradient-25" x1="142" y1="401.84" x2="196.32" y2="401.84" xlink:href="#linear-gradient-2"/>
    <linearGradient id="linear-gradient-26" x1="134.51" y1="405.9" x2="181.09" y2="405.9" xlink:href="#linear-gradient-2"/>
    <linearGradient id="linear-gradient-27" x1="127.02" y1="409.93" x2="165.91" y2="409.93" xlink:href="#linear-gradient-2"/>
    <linearGradient id="linear-gradient-28" x1="119.54" y1="413.74" x2="151.16" y2="413.74" xlink:href="#linear-gradient-2"/>
    <linearGradient id="linear-gradient-29" x1="112.05" y1="417.16" x2="137.15" y2="417.16" xlink:href="#linear-gradient-2"/>
    <linearGradient id="linear-gradient-30" x1="104.57" y1="420.13" x2="123.98" y2="420.13" xlink:href="#linear-gradient-2"/>
    <linearGradient id="linear-gradient-31" x1="97.08" y1="422.67" x2="111.67" y2="422.67" xlink:href="#linear-gradient-2"/>
    <linearGradient id="linear-gradient-32" x1="89.6" y1="424.77" x2="100.17" y2="424.77" xlink:href="#linear-gradient-2"/>
    <linearGradient id="linear-gradient-33" x1="82.11" y1="426.48" x2="89.42" y2="426.48" xlink:href="#linear-gradient-2"/>
    <linearGradient id="linear-gradient-34" x1="74.63" y1="427.9" x2="79.22" y2="427.9" xlink:href="#linear-gradient-2"/>
    <linearGradient id="linear-gradient-35" x1="725.85" y1="427.87" x2="728" y2="427.87" gradientUnits="userSpaceOnUse">
      <stop offset="0" stop-color="#7c837d"/>
      <stop offset=".25" stop-color="#a4a9a5"/>
      <stop offset=".59" stop-color="#d5d7d5"/>
      <stop offset=".85" stop-color="#f3f4f3"/>
      <stop offset="1" stop-color="#fff"/>
    </linearGradient>
    <linearGradient id="linear-gradient-36" x1="718.37" y1="423.95" y2="423.95" xlink:href="#linear-gradient-35"/>
    <linearGradient id="linear-gradient-37" x1="710.88" y1="420.03" y2="420.03" xlink:href="#linear-gradient-35"/>
    <linearGradient id="linear-gradient-38" x1="703.4" y1="416.11" y2="416.11" xlink:href="#linear-gradient-35"/>
    <linearGradient id="linear-gradient-39" x1="695.91" y1="412.18" y2="412.18" xlink:href="#linear-gradient-35"/>
    <linearGradient id="linear-gradient-40" x1="688.42" y1="408.26" y2="408.26" xlink:href="#linear-gradient-35"/>
    <linearGradient id="linear-gradient-41" x1="680.94" y1="404.34" y2="404.34" xlink:href="#linear-gradient-35"/>
    <linearGradient id="linear-gradient-42" x1="673.45" y1="400.41" y2="400.41" xlink:href="#linear-gradient-35"/>
    <linearGradient id="linear-gradient-43" x1="665.97" y1="396.49" y2="396.49" xlink:href="#linear-gradient-35"/>
    <linearGradient id="linear-gradient-44" x1="658.48" y1="392.57" y2="392.57" xlink:href="#linear-gradient-35"/>
    <linearGradient id="linear-gradient-45" x1="651" y1="392.68" x2="722.8" y2="392.68" xlink:href="#linear-gradient-35"/>
    <linearGradient id="linear-gradient-46" x1="643.51" y1="394.43" x2="711.96" y2="394.43" xlink:href="#linear-gradient-35"/>
    <linearGradient id="linear-gradient-47" x1="636.03" y1="396" x2="701.5" y2="396" xlink:href="#linear-gradient-35"/>
    <linearGradient id="linear-gradient-48" x1="628.54" y1="397.4" x2="691.34" y2="397.4" xlink:href="#linear-gradient-35"/>
    <linearGradient id="linear-gradient-49" x1="621.06" y1="398.66" x2="681.45" y2="398.66" xlink:href="#linear-gradient-35"/>
    <linearGradient id="linear-gradient-50" x1="613.57" y1="399.81" x2="671.77" y2="399.81" xlink:href="#linear-gradient-35"/>
    <linearGradient id="linear-gradient-51" x1="606.09" y1="400.86" x2="662.28" y2="400.86" xlink:href="#linear-gradient-35"/>
    <linearGradient id="linear-gradient-52" x1="598.6" y1="401.84" x2="652.93" y2="401.84" xlink:href="#linear-gradient-35"/>
    <linearGradient id="linear-gradient-53" x1="591.12" y1="402.73" x2="643.74" y2="402.73" xlink:href="#linear-gradient-35"/>
    <linearGradient id="linear-gradient-54" x1="583.63" y1="403.53" x2="634.72" y2="403.53" xlink:href="#linear-gradient-35"/>
    <linearGradient id="linear-gradient-55" x1="576.14" y1="404.25" x2="625.87" y2="404.25" xlink:href="#linear-gradient-35"/>
    <linearGradient id="linear-gradient-56" x1="568.66" y1="404.87" x2="617.2" y2="404.87" xlink:href="#linear-gradient-35"/>
    <linearGradient id="linear-gradient-57" x1="561.17" y1="405.39" x2="608.72" y2="405.39" xlink:href="#linear-gradient-35"/>
    <linearGradient id="linear-gradient-58" x1="553.69" y1="405.82" x2="600.42" y2="405.82" xlink:href="#linear-gradient-35"/>
    <linearGradient id="linear-gradient-59" x1="546.2" y1="406.15" x2="592.31" y2="406.15" xlink:href="#linear-gradient-35"/>
    <linearGradient id="linear-gradient-60" x1="538.72" y1="406.37" x2="584.39" y2="406.37" xlink:href="#linear-gradient-35"/>
    <linearGradient id="linear-gradient-61" x1="531.23" y1="406.51" x2="576.65" y2="406.51" xlink:href="#linear-gradient-35"/>
    <linearGradient id="linear-gradient-62" x1="523.75" y1="406.53" x2="569.1" y2="406.53" xlink:href="#linear-gradient-35"/>
    <linearGradient id="linear-gradient-63" x1="516.26" y1="406.43" x2="561.74" y2="406.43" xlink:href="#linear-gradient-35"/>
    <linearGradient id="linear-gradient-64" x1="508.78" y1="406.24" x2="554.56" y2="406.24" xlink:href="#linear-gradient-35"/>
    <linearGradient id="linear-gradient-65" x1="501.29" y1="405.95" x2="547.57" y2="405.95" xlink:href="#linear-gradient-35"/>
    <linearGradient id="linear-gradient-66" x1="493.81" y1="405.56" x2="540.76" y2="405.56" xlink:href="#linear-gradient-35"/>
    <linearGradient id="linear-gradient-67" x1="486.32" y1="405.09" x2="534.12" y2="405.09" xlink:href="#linear-gradient-35"/>
    <linearGradient id="linear-gradient-68" x1="478.84" y1="404.52" x2="527.66" y2="404.52" xlink:href="#linear-gradient-35"/>
    <linearGradient id="linear-gradient-69" x1="471.35" y1="403.86" x2="521.38" y2="403.86" xlink:href="#linear-gradient-35"/>
    <linearGradient id="linear-gradient-70" x1="463.86" y1="403.11" x2="515.26" y2="403.11" xlink:href="#linear-gradient-35"/>
    <linearGradient id="linear-gradient-71" x1="456.38" y1="402.27" x2="509.32" y2="402.27" xlink:href="#linear-gradient-35"/>
    <linearGradient id="linear-gradient-72" x1="448.89" y1="401.35" x2="503.55" y2="401.35" xlink:href="#linear-gradient-35"/>
    <linearGradient id="linear-gradient-73" x1="441.41" y1="400.34" x2="497.93" y2="400.34" xlink:href="#linear-gradient-35"/>
    <linearGradient id="linear-gradient-74" x1="433.92" y1="399.25" x2="492.48" y2="399.25" xlink:href="#linear-gradient-35"/>
    <linearGradient id="linear-gradient-75" x1="426.44" y1="398.07" x2="487.18" y2="398.07" xlink:href="#linear-gradient-35"/>
    <linearGradient id="linear-gradient-76" x1="418.95" y1="396.81" x2="482.05" y2="396.81" xlink:href="#linear-gradient-35"/>
    <linearGradient id="linear-gradient-77" x1="412.28" y1="395.48" x2="477.06" y2="395.48" xlink:href="#linear-gradient-35"/>
    <linearGradient id="linear-gradient-78" x1="407.99" y1="392.53" x2="472.23" y2="392.53" xlink:href="#linear-gradient-35"/>
    <linearGradient id="linear-gradient-79" x1="403.88" y1="389.3" x2="467.54" y2="389.3" xlink:href="#linear-gradient-35"/>
    <linearGradient id="linear-gradient-80" x1="400.02" y1="385.88" x2="463" y2="385.88" xlink:href="#linear-gradient-35"/>
    <linearGradient id="linear-gradient-81" x1="396.35" y1="382.27" x2="458.61" y2="382.27" xlink:href="#linear-gradient-35"/>
    <linearGradient id="linear-gradient-82" x1="392.86" y1="378.49" x2="454.34" y2="378.49" xlink:href="#linear-gradient-35"/>
    <linearGradient id="linear-gradient-83" x1="389.56" y1="374.57" x2="450.18" y2="374.57" xlink:href="#linear-gradient-35"/>
    <linearGradient id="linear-gradient-84" x1="386.4" y1="370.52" x2="446.13" y2="370.52" xlink:href="#linear-gradient-35"/>
    <linearGradient id="linear-gradient-85" x1="383.35" y1="366.35" x2="442.16" y2="366.35" xlink:href="#linear-gradient-35"/>
    <linearGradient id="linear-gradient-86" x1="380.42" y1="362.08" x2="438.27" y2="362.08" xlink:href="#linear-gradient-35"/>
    <linearGradient id="linear-gradient-87" x1="377.57" y1="357.74" x2="434.45" y2="357.74" xlink:href="#linear-gradient-35"/>
    <linearGradient id="linear-gradient-88" x1="374.78" y1="353.33" x2="430.69" y2="353.33" xlink:href="#linear-gradient-35"/>
    <linearGradient id="linear-gradient-89" x1="372.03" y1="348.88" x2="426.96" y2="348.88" xlink:href="#linear-gradient-35"/>
    <linearGradient id="linear-gradient-90" x1="369.3" y1="344.4" x2="423.27" y2="344.4" xlink:href="#linear-gradient-35"/>
    <linearGradient id="linear-gradient-91" x1="366.56" y1="339.9" x2="419.6" y2="339.9" xlink:href="#linear-gradient-35"/>
    <linearGradient id="linear-gradient-92" x1="363.81" y1="335.42" x2="415.93" y2="335.42" xlink:href="#linear-gradient-35"/>
    <linearGradient id="linear-gradient-93" x1="361" y1="330.96" x2="412.27" y2="330.96" xlink:href="#linear-gradient-35"/>
    <linearGradient id="linear-gradient-94" x1="358.12" y1="326.54" x2="408.59" y2="326.54" xlink:href="#linear-gradient-35"/>
    <linearGradient id="linear-gradient-95" x1="355.16" y1="322.17" x2="404.89" y2="322.17" xlink:href="#linear-gradient-35"/>
    <linearGradient id="linear-gradient-96" x1="352.07" y1="317.89" x2="401.15" y2="317.89" xlink:href="#linear-gradient-35"/>
    <linearGradient id="linear-gradient-97" x1="348.84" y1="313.7" x2="397.36" y2="313.7" xlink:href="#linear-gradient-35"/>
    <linearGradient id="linear-gradient-98" x1="345.46" y1="309.63" x2="393.52" y2="309.63" xlink:href="#linear-gradient-35"/>
    <linearGradient id="linear-gradient-99" x1="341.88" y1="305.68" x2="389.61" y2="305.68" xlink:href="#linear-gradient-35"/>
    <linearGradient id="linear-gradient-100" x1="338.07" y1="301.9" x2="385.61" y2="301.9" xlink:href="#linear-gradient-35"/>
    <linearGradient id="linear-gradient-101" x1="334.04" y1="298.3" x2="381.52" y2="298.3" xlink:href="#linear-gradient-35"/>
    <linearGradient id="linear-gradient-102" x1="329.72" y1="294.89" x2="377.32" y2="294.89" xlink:href="#linear-gradient-35"/>
    <linearGradient id="linear-gradient-103" x1="325.1" y1="291.7" x2="372.98" y2="291.7" xlink:href="#linear-gradient-35"/>
    <linearGradient id="linear-gradient-104" x1="320.16" y1="288.77" x2="368.5" y2="288.77" xlink:href="#linear-gradient-35"/>
    <linearGradient id="linear-gradient-105" x1="314.83" y1="286.09" x2="363.87" y2="286.09" xlink:href="#linear-gradient-35"/>
    <linearGradient id="linear-gradient-106" x1="309.09" y1="283.73" x2="359.07" y2="283.73" xlink:href="#linear-gradient-35"/>
    <linearGradient id="linear-gradient-107" x1="302.93" y1="281.7" x2="354.07" y2="281.7" xlink:href="#linear-gradient-35"/>
    <linearGradient id="linear-gradient-108" x1="296.32" y1="280.02" x2="348.85" y2="280.02" xlink:href="#linear-gradient-35"/>
    <linearGradient id="linear-gradient-109" x1="289.22" y1="278.71" x2="343.38" y2="278.71" xlink:href="#linear-gradient-35"/>
    <linearGradient id="linear-gradient-110" x1="281.62" y1="277.85" x2="337.65" y2="277.85" xlink:href="#linear-gradient-35"/>
    <linearGradient id="linear-gradient-111" x1="273.51" y1="277.46" x2="331.66" y2="277.46" xlink:href="#linear-gradient-35"/>
    <linearGradient id="linear-gradient-112" x1="264.83" y1="277.52" x2="325.36" y2="277.52" xlink:href="#linear-gradient-35"/>
    <linearGradient id="linear-gradient-113" x1="255.63" y1="278.02" x2="318.74" y2="278.02" xlink:href="#linear-gradient-35"/>
    <linearGradient id="linear-gradient-114" x1="245.88" y1="278.99" x2="311.78" y2="278.99" xlink:href="#linear-gradient-35"/>
    <linearGradient id="linear-gradient-115" x1="235.54" y1="280.45" x2="304.45" y2="280.45" xlink:href="#linear-gradient-35"/>
    <linearGradient id="linear-gradient-116" x1="224.59" y1="282.4" x2="296.72" y2="282.4" xlink:href="#linear-gradient-35"/>
    <linearGradient id="linear-gradient-117" x1="213.07" y1="284.88" x2="288.54" y2="284.88" xlink:href="#linear-gradient-35"/>
    <linearGradient id="linear-gradient-118" x1="201.05" y1="287.89" x2="279.85" y2="287.89" xlink:href="#linear-gradient-35"/>
    <linearGradient id="linear-gradient-119" x1="188.71" y1="291.35" x2="270.61" y2="291.35" xlink:href="#linear-gradient-35"/>
    <linearGradient id="linear-gradient-120" x1="176.27" y1="295.22" x2="260.7" y2="295.22" xlink:href="#linear-gradient-35"/>
    <linearGradient id="linear-gradient-121" x1="163.98" y1="299.4" x2="250.03" y2="299.4" xlink:href="#linear-gradient-35"/>
    <linearGradient id="linear-gradient-122" x1="152.06" y1="303.89" x2="238.43" y2="303.89" xlink:href="#linear-gradient-35"/>
    <linearGradient id="linear-gradient-123" x1="140.67" y1="308.71" x2="225.65" y2="308.71" xlink:href="#linear-gradient-35"/>
    <linearGradient id="linear-gradient-124" x1="129.74" y1="313.87" x2="211.75" y2="313.87" xlink:href="#linear-gradient-35"/>
    <linearGradient id="linear-gradient-125" x1="119.29" y1="319.36" x2="196.76" y2="319.36" xlink:href="#linear-gradient-35"/>
    <linearGradient id="linear-gradient-126" x1="109.23" y1="325.05" x2="180.98" y2="325.05" xlink:href="#linear-gradient-35"/>
    <linearGradient id="linear-gradient-127" x1="99.5" y1="330.64" x2="165.07" y2="330.64" xlink:href="#linear-gradient-35"/>
    <linearGradient id="linear-gradient-128" x1="90.07" y1="335.79" x2="149.71" y2="335.79" xlink:href="#linear-gradient-35"/>
    <linearGradient id="linear-gradient-129" x1="80.9" y1="340.25" x2="135.4" y2="340.25" xlink:href="#linear-gradient-35"/>
    <linearGradient id="linear-gradient-130" x1="71.97" y1="344" x2="122.21" y2="344" xlink:href="#linear-gradient-35"/>
    <linearGradient id="linear-gradient-131" x1="63.27" y1="347.06" x2="110.09" y2="347.06" xlink:href="#linear-gradient-35"/>
    <linearGradient id="linear-gradient-132" x1="54.76" y1="349.66" x2="98.67" y2="349.66" xlink:href="#linear-gradient-35"/>
    <linearGradient id="linear-gradient-133" x1="46.44" y1="351.81" x2="87.93" y2="351.81" xlink:href="#linear-gradient-35"/>
    <linearGradient id="linear-gradient-134" x1="38.31" y1="353.6" x2="77.67" y2="353.6" xlink:href="#linear-gradient-35"/>
    <linearGradient id="linear-gradient-135" x1="30.35" y1="355.09" x2="67.82" y2="355.09" xlink:href="#linear-gradient-35"/>
    <linearGradient id="linear-gradient-136" x1="22.53" y1="356.31" x2="58.33" y2="356.31" xlink:href="#linear-gradient-35"/>
    <linearGradient id="linear-gradient-137" x1="14.86" y1="357.27" x2="49.2" y2="357.27" xlink:href="#linear-gradient-35"/>
    <linearGradient id="linear-gradient-138" x1="7.31" y1="358.03" x2="40.35" y2="358.03" xlink:href="#linear-gradient-35"/>
    <linearGradient id="linear-gradient-139" x1="4.8" y1="357.3" x2="31.75" y2="357.3" xlink:href="#linear-gradient-35"/>
    <linearGradient id="linear-gradient-140" x1="4.8" y1="353.84" x2="23.39" y2="353.84" xlink:href="#linear-gradient-35"/>
    <linearGradient id="linear-gradient-141" x1="4.8" y1="350.27" x2="15.24" y2="350.27" xlink:href="#linear-gradient-35"/>
    <linearGradient id="linear-gradient-142" x1="4.8" y1="346.59" x2="7.28" y2="346.59" xlink:href="#linear-gradient-35"/>
  </defs>
  <g class="cls-156">
    <g id="Layer_1" data-name="Layer 1">
      <g>
        <rect id="Basic" class="cls-2" x="0" width="728" height="429"/>
        <g>
          <g class="cls-54">
            <path class="cls-6" d="m307.49,375.34c-10.36-17.13-31.41-24.47-50.71-23.02-19.3,1.46-37.33,10.23-54.64,19.29-33.74,17.66-66.91,37.06-102.8,49.22-9.58,3.24-19.29,5.95-29.11,8.17h249.46c-.82-8.48-1.93-16.93-3.33-25.33-1.64-9.86-3.76-19.88-8.87-28.33Z"/>
            <path class="cls-10" d="m196.32,209.8c48.85-29.03,97.64-60.48,152.36-73.71,28.85-6.97,62.56-7.37,84.2,13.81,15.89,15.56,21.51,39.07,30.56,59.8,16.6,38.03,49.12,70.23,88.53,76.77,40.01,6.64,79.62-13.25,113.35-36.74,20.94-14.59,41.16-30.95,62.69-44.42v-43.32c-25.63,13.03-51.05,27.01-78.57,34.61-29.15,8.04-61.65,8.22-87.9-7.31-28.47-16.83-45.19-49.07-57.38-80.85-12.19-31.79-21.71-65.49-41.77-92.54-4.22-5.69-8.9-11.01-13.94-15.9H0v294.34c16.99-3.36,33.78-7.92,50.21-13.43,51.24-17.18,99.31-43.3,146.11-71.11Z"/>
            <path class="cls-9" d="m462.37,15.9c20.06,27.05,29.58,60.76,41.77,92.54,12.19,31.79,28.92,64.02,57.38,80.85,26.25,15.52,58.75,15.35,87.9,7.31,27.52-7.6,52.94-21.58,78.57-34.61V0h-279.57c5.05,4.89,9.72,10.21,13.94,15.9Z"/>
            <path class="cls-5" d="m320.35,312.96c-16.71-8.12-36.04-8.06-54.24-5.08-41.48,6.78-79.51,27.47-119.18,41.87C99.83,366.85,49.83,374.93,0,373.97v55.03h70.23c9.81-2.23,19.53-4.93,29.11-8.17,35.89-12.15,69.05-31.56,102.8-49.22,17.31-9.06,35.34-17.83,54.64-19.29,19.3-1.46,40.35,5.89,50.71,23.02,5.11,8.45,7.23,18.47,8.87,28.33,1.4,8.4,2.51,16.85,3.33,25.33h93.73c-4.35-3.13-8.49-6.57-12.32-10.4-31.56-31.57-41.17-86.41-80.75-105.64Z"/>
            <path class="cls-7" d="m665.31,249.74c-33.74,23.5-73.35,43.38-113.35,36.74-39.41-6.54-71.93-38.74-88.53-76.77-9.05-20.73-14.67-44.24-30.56-59.8-21.63-21.18-55.35-20.78-84.2-13.81-54.71,13.23-103.51,44.68-152.36,73.71-46.8,27.81-94.87,53.93-146.11,71.11C33.78,286.42,16.99,290.98,0,294.34v51.25c44.68-1.26,89.13-11.34,130.09-30.09,35.82-16.4,68.86-39.05,105.16-54.26,36.29-15.21,77.98-22.47,114.16-6.97,46.11,19.75,72.5,70.87,113.84,99.98,54.46,38.34,126.27,33.32,190.67,20.23,24.8-5.04,49.88-11.37,74.08-19.88v-149.28c-21.53,13.48-41.75,29.83-62.69,44.42Z"/>
            <path class="cls-8" d="m463.25,354.25c-41.34-29.11-67.74-80.23-113.84-99.98-36.18-15.5-77.86-8.24-114.16,6.97-36.29,15.21-69.34,37.86-105.16,54.26C89.13,334.25,44.68,344.32,0,345.58v28.39c49.83.96,99.83-7.12,146.93-24.22,39.67-14.41,77.7-35.09,119.18-41.87,18.2-2.97,37.53-3.04,54.24,5.08,39.58,19.23,49.19,74.07,80.75,105.64,3.83,3.83,7.97,7.27,12.32,10.4h314.57v-74.4c-24.2,8.51-49.28,14.84-74.08,19.88-64.41,13.09-136.21,18.12-190.67-20.23Z"/>
          </g>
          <g>
            <g class="cls-54">
              <path class="cls-59" d="m316.65,429l2.74-2.87c-.08-.78-.16-1.57-.25-2.35l-4.98,5.22h2.5Z"/>
              <path class="cls-57" d="m309.17,429l9.42-9.87c-.1-.77-.18-1.55-.28-2.32l-11.63,12.19h2.5Z"/>
              <path class="cls-58" d="m301.68,429l15.99-16.76c-.11-.76-.21-1.52-.32-2.28l-18.16,19.04h2.5Z"/>
              <path class="cls-62" d="m294.2,429l22.45-23.53c-.1-.6-.18-1.2-.28-1.8-.02-.15-.05-.29-.07-.44l-24.58,25.77h2.5Z"/>
              <path class="cls-60" d="m286.71,429l28.79-30.18c-.14-.72-.28-1.45-.43-2.17l-30.86,32.35h2.5Z"/>
              <path class="cls-61" d="m279.23,429l34.91-36.59c-.17-.69-.35-1.38-.53-2.06l-36.87,38.65h2.5Z"/>
              <path class="cls-55" d="m271.74,429l40.68-42.64c-.21-.64-.43-1.29-.66-1.92l-42.51,44.56h2.5Z"/>
              <path class="cls-56" d="m264.26,429l46.03-48.24c-.26-.59-.53-1.18-.82-1.76l-47.71,50h2.5Z"/>
              <path class="cls-138" d="m256.77,429l50.9-53.35c-.06-.1-.12-.21-.18-.31-.26-.43-.53-.85-.81-1.27l-52.41,54.93h2.5Z"/>
              <path class="cls-139" d="m249.29,429l55.25-57.91c-.38-.48-.76-.95-1.15-1.41l-56.59,59.32h2.5Z"/>
              <path class="cls-137" d="m241.8,429l59.12-61.96c-.43-.42-.87-.84-1.31-1.24l-60.3,63.2h2.5Z"/>
              <path class="cls-136" d="m234.31,429l62.52-65.53c-.48-.37-.97-.73-1.46-1.09l-63.56,66.62h2.5Z"/>
              <path class="cls-126" d="m226.83,429l65.49-68.64c-.53-.32-1.06-.63-1.6-.94l-66.38,69.58h2.5Z"/>
              <path class="cls-132" d="m219.34,429l68.02-71.29c-.58-.27-1.16-.53-1.75-.78l-68.77,72.08h2.5Z"/>
              <path class="cls-134" d="m211.86,429l70.11-73.48c-.63-.22-1.26-.42-1.9-.62l-70.7,74.1h2.5Z"/>
              <path class="cls-135" d="m204.37,429l71.73-75.18c-.69-.16-1.38-.31-2.07-.45l-72.15,75.63h2.5Z"/>
              <path class="cls-127" d="m196.89,429l72.83-76.33c-.75-.1-1.51-.18-2.26-.25l-73.06,76.58h2.5Z"/>
              <path class="cls-133" d="m189.4,429l73.31-76.84c-.83-.01-1.67-.02-2.5,0l-73.31,76.84h2.5Z"/>
              <path class="cls-129" d="m181.92,429l72.97-76.49c-.94.09-1.88.2-2.81.33l-72.66,76.16h2.5Z"/>
              <path class="cls-130" d="m174.43,429l71.69-75.14c-1.07.22-2.13.47-3.19.73l-70.99,74.41h2.5Z"/>
              <path class="cls-128" d="m166.95,429l69.15-72.48c-1.23.39-2.45.8-3.67,1.23l-67.98,71.25h2.5Z"/>
              <path class="cls-131" d="m159.46,429l65.05-68.18c-1.43.6-2.85,1.22-4.27,1.86l-63.28,66.32h2.5Z"/>
              <path class="cls-141" d="m151.98,429l59.14-61.99c-1.62.81-3.23,1.62-4.83,2.45l-56.81,59.54h2.5Z"/>
              <path class="cls-149" d="m144.49,429l51.83-54.33c-1.69.89-3.37,1.79-5.06,2.69l-49.27,51.64h2.5Z"/>
              <path class="cls-142" d="m137.01,429l44.08-46.2c-1.7.91-3.39,1.81-5.09,2.72l-41.49,43.49h2.5Z"/>
              <path class="cls-140" d="m129.52,429l36.39-38.14c-1.66.87-3.32,1.74-4.98,2.6l-33.91,35.54h2.5Z"/>
              <path class="cls-150" d="m122.03,429l29.12-30.53c-1.58.8-3.17,1.58-4.76,2.37l-26.86,28.16h2.5Z"/>
              <path class="cls-151" d="m114.55,429l22.6-23.69c-1.5.71-3,1.41-4.5,2.1l-20.59,21.58h2.5Z"/>
              <path class="cls-153" d="m107.06,429l16.92-17.73c-1.4.61-2.8,1.21-4.21,1.8l-15.2,15.93h2.5Z"/>
              <path class="cls-155" d="m99.58,429l12.09-12.67c-1.3.5-2.6,1-3.91,1.48l-10.67,11.18h2.5Z"/>
              <path class="cls-154" d="m92.09,429l8.07-8.46c-.28.09-.55.2-.83.29-.93.32-1.88.6-2.81.91l-6.93,7.26h2.5Z"/>
              <path class="cls-152" d="m84.61,429l4.81-5.04c-1.16.34-2.31.69-3.47,1.02l-3.83,4.02h2.5Z"/>
              <path class="cls-146" d="m79.22,426.8c-1.1.28-2.19.56-3.29.83l-1.3,1.37h2.5l2.1-2.2Z"/>
            </g>
            <g class="cls-54">
              <polygon class="cls-144" points="728 429 728 426.75 725.85 429 728 429"/>
              <polygon class="cls-148" points="720.86 429 728 421.52 728 418.9 718.37 429 720.86 429"/>
              <polygon class="cls-145" points="713.38 429 728 413.67 728 411.06 710.88 429 713.38 429"/>
              <polygon class="cls-143" points="705.89 429 728 405.83 728 403.21 703.4 429 705.89 429"/>
              <polygon class="cls-147" points="698.4 429 728 397.98 728 395.37 695.91 429 698.4 429"/>
              <polygon class="cls-117" points="690.92 429 728 390.13 728 387.52 688.42 429 690.92 429"/>
              <polygon class="cls-116" points="683.43 429 728 382.29 728 379.67 680.94 429 683.43 429"/>
              <polygon class="cls-119" points="675.95 429 728 374.44 728 371.83 673.45 429 675.95 429"/>
              <polygon class="cls-118" points="668.46 429 728 366.6 728 363.98 665.97 429 668.46 429"/>
              <polygon class="cls-122" points="660.98 429 728 358.75 728 356.14 658.48 429 660.98 429"/>
              <path class="cls-120" d="m653.49,429l69.31-72.64c-1.23.41-2.45.85-3.69,1.25l-68.11,71.39h2.5Z"/>
              <path class="cls-121" d="m646.01,429l65.96-69.13c-1.18.36-2.35.73-3.53,1.09l-64.92,68.05h2.5Z"/>
              <path class="cls-124" d="m638.52,429l62.98-66.01c-1.13.32-2.27.64-3.4.95l-62.07,65.06h2.5Z"/>
              <path class="cls-125" d="m631.04,429l60.31-63.21c-1.1.29-2.2.56-3.3.85l-59.5,62.36h2.5Z"/>
              <path class="cls-123" d="m623.55,429l57.9-60.69c-1.08.26-2.15.51-3.23.77l-57.16,59.92h2.5Z"/>
              <path class="cls-75" d="m616.07,429l55.71-58.39c-1.06.24-2.11.47-3.17.71l-55.03,57.68h2.5Z"/>
              <path class="cls-73" d="m608.58,429l53.7-56.28c-1.04.22-2.08.44-3.12.65l-53.07,55.63h2.5Z"/>
              <path class="cls-74" d="m601.1,429l51.83-54.33c-1.03.21-2.05.41-3.08.61l-51.25,53.72h2.5Z"/>
              <path class="cls-71" d="m593.61,429l50.13-52.54c-1.01.19-2.02.37-3.03.56l-49.6,51.99h2.5Z"/>
              <path class="cls-72" d="m586.13,429l48.6-50.93c-.99.17-1.98.33-2.97.5l-48.12,50.44h2.5Z"/>
              <path class="cls-69" d="m578.64,429l47.23-49.51c-.97.15-1.94.29-2.91.43l-46.82,49.07h2.5Z"/>
              <path class="cls-70" d="m571.15,429l46.05-48.27c-.95.13-1.9.25-2.85.37l-45.7,47.9h2.5Z"/>
              <path class="cls-67" d="m563.67,429l45.05-47.22c-.93.11-1.86.21-2.79.31l-44.76,46.91h2.5Z"/>
              <path class="cls-68" d="m556.18,429l44.24-46.37c-.91.08-1.82.16-2.73.24l-44.01,46.13h2.5Z"/>
              <path class="cls-66" d="m548.7,429l43.61-45.71c-.89.06-1.77.12-2.66.17l-43.44,45.54h2.5Z"/>
              <path class="cls-93" d="m541.21,429l43.17-45.25c-.87.04-1.73.08-2.6.11l-43.07,45.14h2.5Z"/>
              <path class="cls-95" d="m533.73,429l42.92-44.99c-.85.02-1.69.03-2.53.04l-42.88,44.94h2.5Z"/>
              <path class="cls-94" d="m526.24,429l42.86-44.92c-.83,0-1.65,0-2.48-.02l-42.88,44.94h2.5Z"/>
              <path class="cls-90" d="m518.76,429l42.98-45.05c-.8-.03-1.61-.05-2.41-.09l-43.07,45.14h2.5Z"/>
              <path class="cls-89" d="m511.27,429l43.29-45.37c-.78-.05-1.57-.1-2.35-.15l-43.43,45.52h2.5Z"/>
              <path class="cls-92" d="m503.79,429l43.78-45.89c-.77-.07-1.53-.14-2.29-.21l-43.98,46.1h2.5Z"/>
              <path class="cls-91" d="m496.3,429l44.45-46.59c-.74-.09-1.49-.18-2.23-.28l-44.72,46.87h2.5Z"/>
              <path class="cls-87" d="m488.82,429l45.3-47.48c-.72-.11-1.45-.22-2.17-.34l-45.63,47.82h2.5Z"/>
              <path class="cls-86" d="m481.33,429l46.33-48.56c-.7-.13-1.41-.27-2.11-.4l-46.71,48.96h2.5Z"/>
              <path class="cls-88" d="m473.85,429l47.53-49.82c-.69-.15-1.37-.31-2.05-.46l-47.97,50.28h2.5Z"/>
              <path class="cls-82" d="m466.36,429l48.91-51.26c-.67-.17-1.33-.34-2-.52l-49.4,51.78h2.5Z"/>
              <path class="cls-83" d="m458.87,429l50.45-52.88c-.65-.19-1.3-.38-1.94-.58l-51,53.45h2.5Z"/>
              <path class="cls-84" d="m451.39,429l52.16-54.67c-.63-.21-1.26-.42-1.89-.63l-52.76,55.3h2.5Z"/>
              <path class="cls-85" d="m443.9,429l54.03-56.63c-.61-.23-1.22-.46-1.83-.69l-54.69,57.32h2.5Z"/>
              <path class="cls-79" d="m436.42,429l56.06-58.76c-.59-.25-1.19-.5-1.78-.75l-56.78,59.51h2.5Z"/>
              <path class="cls-80" d="m428.93,429l58.25-61.05c-.58-.26-1.15-.54-1.72-.81l-59.02,61.86h2.5Z"/>
              <path class="cls-81" d="m421.45,429l60.6-63.52c-.56-.28-1.12-.57-1.68-.86l-61.42,64.38h2.5Z"/>
              <path class="cls-76" d="m413.43,429h.54l63.1-66.14c-.54-.3-1.09-.6-1.63-.91l-63.16,66.19c.38.28.76.58,1.14.85Z"/>
              <path class="cls-77" d="m409.4,425.94l62.84-65.86c-.53-.32-1.06-.63-1.58-.96l-62.66,65.68c.47.38.94.76,1.41,1.14Z"/>
              <path class="cls-78" d="m405.24,422.45l62.31-65.31c-.51-.33-1.02-.67-1.53-1.01l-62.13,65.12c.44.41.9.8,1.35,1.2Z"/>
              <path class="cls-107" d="m401.11,418.6c.06.06.11.11.17.16l61.72-64.7c-.5-.35-.98-.72-1.47-1.07l-61.51,64.47c.36.38.72.76,1.09,1.13Z"/>
              <path class="cls-106" d="m397.55,414.82l61.06-64c-.48-.37-.96-.74-1.43-1.11l-60.82,63.75c.4.46.79.91,1.2,1.36Z"/>
              <path class="cls-115" d="m394.01,410.68l60.32-63.23c-.47-.38-.93-.76-1.4-1.15l-60.08,62.97c.38.48.77.94,1.15,1.41Z"/>
              <path class="cls-114" d="m390.64,406.37l59.54-62.4c-.46-.39-.91-.78-1.37-1.18l-59.26,62.11c.36.5.72.99,1.08,1.48Z"/>
              <path class="cls-113" d="m387.43,401.89l58.7-61.52c-.45-.41-.9-.8-1.34-1.21l-58.39,61.2c.34.51.69,1.03,1.03,1.53Z"/>
              <path class="cls-112" d="m384.36,397.26l57.81-60.59c-.44-.41-.87-.83-1.31-1.25l-57.5,60.27c.33.52.67,1.04,1,1.56Z"/>
              <path class="cls-111" d="m381.39,392.53l56.89-59.62c-.43-.42-.85-.85-1.28-1.28l-56.58,59.3c.32.54.65,1.07.97,1.6Z"/>
              <path class="cls-110" d="m378.51,387.71l55.95-58.64c-.42-.43-.84-.87-1.26-1.3l-55.63,58.3c.31.54.62,1.09.94,1.63Z"/>
              <path class="cls-108" d="m375.7,382.8l54.98-57.63c-.42-.44-.83-.87-1.24-1.31l-54.67,57.3c.31.55.62,1.1.92,1.65Z"/>
              <path class="cls-109" d="m372.94,377.85l54.02-56.62c-.41-.44-.82-.88-1.23-1.32l-53.7,56.29c.3.55.61,1.1.91,1.66Z"/>
              <path class="cls-105" d="m370.21,372.87l53.06-55.62c-.41-.44-.82-.89-1.23-1.33l-52.75,55.29c.3.55.61,1.11.91,1.66Z"/>
              <path class="cls-97" d="m367.48,367.89l52.12-54.63c-.41-.44-.82-.89-1.22-1.33l-51.81,54.31c.3.55.61,1.1.91,1.66Z"/>
              <path class="cls-103" d="m364.73,362.92l51.2-53.67c-.41-.45-.81-.89-1.22-1.34l-50.9,53.35c.31.55.61,1.1.92,1.65Z"/>
              <path class="cls-104" d="m361.94,358l50.32-52.75c-.41-.44-.82-.89-1.22-1.33l-50.04,52.45c.31.54.63,1.08.94,1.63Z"/>
              <path class="cls-102" d="m359.09,353.14l49.5-51.88c-.41-.44-.82-.88-1.23-1.32l-49.23,51.6c.32.53.65,1.06.97,1.6Z"/>
              <path class="cls-98" d="m356.15,348.37l48.73-51.08c-.41-.44-.83-.87-1.24-1.31l-48.48,50.82c.34.52.66,1.05,1,1.57Z"/>
              <path class="cls-100" d="m353.12,343.71l48.03-50.35c-.42-.43-.84-.86-1.26-1.3l-47.82,50.12c.35.5.7,1.01,1.04,1.52Z"/>
              <path class="cls-101" d="m349.94,339.19l47.42-49.7c-.42-.43-.85-.85-1.27-1.28l-47.24,49.52c.37.49.74.97,1.1,1.46Z"/>
              <path class="cls-96" d="m346.6,334.84l46.92-49.17c-.43-.42-.86-.84-1.29-1.26l-46.76,49.01c.39.47.76.95,1.14,1.42Z"/>
              <path class="cls-99" d="m343.09,330.68l46.51-48.75c-.44-.41-.88-.83-1.32-1.23l-46.41,48.65c.41.44.82.89,1.22,1.34Z"/>
              <path class="cls-46" d="m339.37,326.73l46.24-48.46c-.45-.4-.89-.81-1.35-1.2l-46.19,48.41c.43.42.87.83,1.3,1.25Z"/>
              <path class="cls-45" d="m335.41,323.04l46.11-48.33c-.46-.39-.92-.78-1.39-1.16l-46.08,48.3c.46.38.91.79,1.36,1.19Z"/>
              <path class="cls-39" d="m331.19,319.61l46.12-48.34c-.48-.38-.96-.74-1.44-1.11l-46.16,48.39c.5.35.99.7,1.48,1.07Z"/>
              <path class="cls-38" d="m326.67,316.5l46.31-48.54c-.49-.36-.99-.71-1.48-1.06l-46.41,48.64c.53.31,1.06.63,1.58.96Z"/>
              <path class="cls-37" d="m320.35,312.96c.5.24.98.52,1.48.78l46.67-48.92c-.51-.34-1.01-.68-1.52-1.02l-46.82,49.07c.06.03.13.06.19.09Z"/>
              <path class="cls-40" d="m316.65,311.32l47.22-49.5c-.52-.32-1.04-.65-1.57-.97l-47.47,49.76c.61.23,1.22.46,1.82.7Z"/>
              <path class="cls-33" d="m311.06,309.34l48.01-50.32c-.54-.3-1.09-.61-1.64-.9l-48.34,50.66c.66.18,1.32.35,1.97.55Z"/>
              <path class="cls-34" d="m305.03,307.8l49.03-51.39c-.57-.28-1.15-.54-1.73-.81l-49.41,51.79c.7.13,1.4.26,2.1.41Z"/>
              <path class="cls-36" d="m298.57,306.73l50.27-52.69c-.6-.25-1.2-.49-1.8-.73l-50.73,53.17c.75.07,1.5.16,2.25.25Z"/>
              <path class="cls-35" d="m291.64,306.15l51.74-54.23c-.63-.22-1.25-.44-1.88-.64l-52.28,54.79c.81.02,1.61.04,2.42.08Z"/>
              <path class="cls-27" d="m284.22,306.09l53.43-56.01c-.65-.19-1.3-.39-1.96-.56l-54.07,56.67c.86-.04,1.73-.08,2.59-.1Z"/>
              <path class="cls-23" d="m276.28,306.56l55.38-58.04c-.69-.16-1.38-.3-2.07-.44l-56.08,58.78c.92-.1,1.85-.2,2.77-.29Z"/>
              <path class="cls-24" d="m266.11,307.87c.56-.09,1.11-.17,1.67-.25l57.58-60.35c-.72-.12-1.45-.23-2.18-.33l-58.35,61.16c.43-.07.85-.15,1.28-.22Z"/>
              <path class="cls-28" d="m258.76,309.23l59.97-62.86c-.76-.08-1.52-.16-2.28-.22l-60.82,63.75c1.04-.23,2.08-.45,3.13-.67Z"/>
              <path class="cls-29" d="m249.19,311.41l62.58-65.6c-.8-.04-1.6-.07-2.4-.1l-63.5,66.55c1.1-.29,2.21-.58,3.31-.86Z"/>
              <path class="cls-30" d="m239.06,314.19l65.39-68.54c-.84,0-1.69.02-2.53.04l-66.37,69.57c1.17-.36,2.34-.72,3.51-1.07Z"/>
              <path class="cls-31" d="m228.31,317.61l68.41-71.7c-.89.05-1.79.12-2.68.19l-69.44,72.79c1.24-.43,2.48-.86,3.72-1.28Z"/>
              <path class="cls-21" d="m216.97,321.65l71.57-75.01c-.95.11-1.89.23-2.84.36l-72.63,76.13c1.3-.5,2.6-.99,3.9-1.48Z"/>
              <path class="cls-22" d="m205.1,326.25l74.75-78.35c-1.01.17-2.01.35-3.01.54l-75.79,79.43c1.35-.55,2.7-1.09,4.05-1.63Z"/>
              <path class="cls-32" d="m192.84,331.25l77.76-81.51c-1.08.24-2.15.5-3.23.77l-78.67,82.46c1.38-.57,2.76-1.15,4.14-1.72Z"/>
              <path class="cls-50" d="m180.41,336.43l80.29-84.15c-1.16.33-2.31.67-3.46,1.02l-80.96,84.86c1.38-.57,2.76-1.15,4.14-1.73Z"/>
              <path class="cls-44" d="m168.05,341.54l81.98-85.93c-1.26.43-2.51.87-3.75,1.32l-82.29,86.25c1.36-.55,2.71-1.09,4.06-1.65Z"/>
              <path class="cls-43" d="m155.98,346.35l82.45-86.41c-1.06.43-2.12.86-3.18,1.3-.32.13-.64.28-.96.42l-82.24,86.19c1.31-.49,2.62-.99,3.92-1.5Z"/>
              <path class="cls-41" d="m144.41,350.63l81.24-85.15c-1.5.69-2.99,1.37-4.48,2.08l-80.51,84.38c1.25-.43,2.5-.87,3.75-1.31Z"/>
              <path class="cls-49" d="m133.35,354.37l78.4-82.18c-1.63.83-3.26,1.66-4.88,2.5l-77.13,80.84c1.21-.38,2.41-.78,3.61-1.17Z"/>
              <path class="cls-48" d="m122.75,357.64l74.01-77.57c-1.74.94-3.47,1.89-5.2,2.84l-72.26,75.74c1.15-.33,2.31-.67,3.46-1.01Z"/>
              <path class="cls-47" d="m112.54,360.49l68.44-71.73c-1.78.99-3.55,1.98-5.33,2.97l-66.42,69.62c1.11-.28,2.21-.57,3.31-.86Z"/>
              <path class="cls-25" d="m102.69,362.97l62.38-65.38c-1.73.95-3.47,1.9-5.2,2.84l-60.37,63.27c1.06-.24,2.13-.48,3.19-.73Z"/>
              <path class="cls-26" d="m93.16,365.12l56.56-59.28c-1.62.85-3.26,1.68-4.89,2.51l-54.76,57.39c1.03-.21,2.06-.41,3.09-.62Z"/>
              <path class="cls-42" d="m83.9,366.97l51.5-53.98c-1.5.72-3.01,1.43-4.53,2.13l-49.98,52.38c1-.18,2-.34,3-.53Z"/>
              <path class="cls-14" d="m74.9,368.56l47.31-49.59c-1.36.58-2.74,1.13-4.11,1.69l-46.13,48.35c.98-.15,1.95-.3,2.93-.46Z"/>
              <path class="cls-16" d="m66.13,369.91l43.96-46.08c-1.3.49-2.6,1-3.9,1.48l-42.92,44.99c.96-.13,1.91-.25,2.87-.39Z"/>
              <path class="cls-13" d="m57.58,371.03l41.09-43.07c-1.2.41-2.41.78-3.62,1.17l-40.29,42.23c.94-.11,1.88-.22,2.82-.34Z"/>
              <path class="cls-12" d="m49.21,371.96l38.72-40.58c-1.16.35-2.32.7-3.48,1.03l-38.01,39.84c.92-.09,1.85-.2,2.77-.29Z"/>
              <path class="cls-18" d="m41.02,372.69l36.65-38.41c-1.12.3-2.23.61-3.35.9l-36,37.74c.9-.07,1.81-.15,2.71-.22Z"/>
              <path class="cls-15" d="m32.99,373.26l34.82-36.5c-1.06.25-2.13.49-3.19.73l-34.28,35.93c.88-.05,1.76-.11,2.65-.16Z"/>
              <path class="cls-17" d="m25.12,373.67l33.21-34.81c-1.02.21-2.04.39-3.05.59l-32.75,34.32c.86-.03,1.73-.06,2.59-.1Z"/>
              <path class="cls-11" d="m17.39,373.93l31.81-33.34c-.99.17-1.98.33-2.96.49l-31.38,32.89c.84-.01,1.69-.02,2.53-.04Z"/>
              <path class="cls-20" d="m9.8,374.04l30.55-32.02c-.96.14-1.92.27-2.88.4l-30.16,31.61c.83,0,1.66.01,2.49,0Z"/>
              <path class="cls-19" d="m4.8,371.43l26.96-28.26c-.93.11-1.87.22-2.8.32l-24.15,25.32v2.62Z"/>
              <path class="cls-52" d="m4.8,363.59l18.59-19.49c-.91.09-1.82.16-2.73.25l-15.86,16.63v2.62Z"/>
              <path class="cls-51" d="m4.8,355.74l10.44-10.95c-.89.06-1.77.12-2.66.17l-7.78,8.16v2.62Z"/>
              <path class="cls-53" d="m7.28,345.29c-.83.04-1.66.07-2.49.1v2.51l2.49-2.61Z"/>
            </g>
          </g>
        </g>
        <g id="Text_Acs" data-name="Text &amp;amp; Acs">
          <g>
            <g class="cls-65">
              <path class="cls-3" d="m368.26,186.43c-3.75,0-6.8-3.2-6.8-7.12s3.05-7.12,6.8-7.12,6.8,3.2,6.8,7.12-3.05,7.12-6.8,7.12Zm0-13.41c-3.31,0-6,2.82-6,6.28s2.69,6.28,6,6.28,6-2.82,6-6.28-2.69-6.28-6-6.28Z"/>
            </g>
            <g class="cls-65">
              <path class="cls-3" d="m654.98,328.31c-3.75,0-6.8-3.19-6.8-7.12s3.05-7.12,6.8-7.12,6.8,3.19,6.8,7.12-3.05,7.12-6.8,7.12Zm0-13.41c-3.31,0-6,2.82-6,6.28s2.69,6.28,6,6.28,6-2.82,6-6.28-2.69-6.28-6-6.28Z"/>
            </g>
            <g class="cls-65">
              <path class="cls-3" d="m420.48,369.79c-2.06,0-3.73-1.75-3.73-3.91s1.67-3.91,3.73-3.91,3.73,1.75,3.73,3.91-1.67,3.91-3.73,3.91Zm0-6.7c-1.47,0-2.66,1.25-2.66,2.79s1.19,2.79,2.66,2.79,2.66-1.25,2.66-2.79-1.19-2.79-2.66-2.79Z"/>
            </g>
            <g class="cls-64">
              <path class="cls-1" d="m601.15,169.81c0-.62.48-1.12,1.07-1.12.31,0,.59.15.78.38,5.52-7.53,8.81-16.96,8.81-27.19s-3.29-19.66-8.81-27.19c-.2.23-.47.38-.78.38-.59,0-1.07-.5-1.07-1.12,0-.41.22-.76.54-.95-1.19-1.48-2.47-2.88-3.84-4.18-.17.39-.54.66-.97.66-.59,0-1.07-.5-1.07-1.12,0-.4.21-.73.51-.93-1.49-1.29-3.07-2.48-4.72-3.55-.02,0-.04.01-.05.01-.43,0-.79-.27-.96-.64-4.31-2.63-9.09-4.49-14.19-5.4-.19.27-.49.46-.84.46-.46,0-.85-.31-.99-.75-1.08-.14-2.17-.26-3.28-.31-.03.59-.49,1.06-1.06,1.06s-1.07-.5-1.07-1.12c-1.09,0-2.16.06-3.22.14-.07.55-.5.98-1.04.98-.47,0-.86-.32-1-.77-5.05.65-9.82,2.23-14.16,4.56.14.19.24.42.24.67,0,.62-.48,1.12-1.07,1.12-.47,0-.85-.32-1-.75-6.14,3.71-11.32,8.97-15.05,15.29.02,0,.03-.01.05-.01.59,0,1.07.5,1.07,1.12s-.48,1.12-1.07,1.12c-.42,0-.77-.26-.95-.63-1.63,3.04-2.93,6.31-3.85,9.74.31.19.53.54.53.95,0,.6-.46,1.09-1.03,1.11-.26,1.18-.48,2.37-.65,3.59.18-.13.38-.23.61-.23.59,0,1.07.5,1.07,1.12s-.48,1.12-1.07,1.12c-.33,0-.61-.17-.81-.41-.17,1.6-.26,3.23-.26,4.88,0-.62.48-1.12,1.07-1.12s1.07.5,1.07,1.12-.48,1.12-1.07,1.12-1.07-.5-1.07-1.12c0,1.65.09,3.28.26,4.88.2-.25.48-.41.81-.41.59,0,1.07.5,1.07,1.12s-.48,1.12-1.07,1.12c-.23,0-.44-.1-.61-.23.17,1.21.39,2.41.65,3.59.57.02,1.03.51,1.03,1.11,0,.41-.22.75-.53.95.92,3.43,2.22,6.69,3.85,9.74.17-.37.53-.63.95-.63.59,0,1.07.5,1.07,1.12s-.48,1.12-1.07,1.12c-.02,0-.03-.01-.05-.01,3.72,6.31,8.9,11.58,15.05,15.29.15-.44.53-.75,1-.75.59,0,1.07.5,1.07,1.12,0,.26-.1.49-.24.67,4.34,2.33,9.11,3.91,14.16,4.56.14-.44.53-.77,1-.77.54,0,.97.43,1.04.98,1.07.08,2.14.14,3.22.14,0-.62.48-1.12,1.07-1.12s1.03.47,1.06,1.06c1.11-.06,2.2-.17,3.28-.31.15-.43.53-.75.99-.75.35,0,.65.19.84.46,5.1-.91,9.88-2.77,14.19-5.4.17-.38.53-.64.96-.64.02,0,.04.01.05.01,1.65-1.07,3.23-2.26,4.72-3.55-.3-.2-.51-.53-.51-.93,0-.62.48-1.12,1.07-1.12.43,0,.8.27.97.66,1.37-1.3,2.64-2.7,3.84-4.18-.32-.19-.54-.54-.54-.95Zm6.4-45.8c.59,0,1.07.5,1.07,1.12s-.48,1.12-1.07,1.12-1.07-.5-1.07-1.12.48-1.12,1.07-1.12Zm0,5.59c.59,0,1.07.5,1.07,1.12s-.48,1.12-1.07,1.12-1.07-.5-1.07-1.12.48-1.12,1.07-1.12Zm0,5.59c.59,0,1.07.5,1.07,1.12s-.48,1.12-1.07,1.12-1.07-.5-1.07-1.12.48-1.12,1.07-1.12Zm0,5.59c.59,0,1.07.5,1.07,1.12s-.48,1.12-1.07,1.12-1.07-.5-1.07-1.12.48-1.12,1.07-1.12Zm0,5.59c.59,0,1.07.5,1.07,1.12s-.48,1.12-1.07,1.12-1.07-.5-1.07-1.12.48-1.12,1.07-1.12Zm0,5.59c.59,0,1.07.5,1.07,1.12s-.48,1.12-1.07,1.12-1.07-.5-1.07-1.12.48-1.12,1.07-1.12Zm0,5.59c.59,0,1.07.5,1.07,1.12s-.48,1.12-1.07,1.12-1.07-.5-1.07-1.12.48-1.12,1.07-1.12Zm-5.33-39.1c.59,0,1.07.5,1.07,1.12s-.48,1.12-1.07,1.12-1.07-.5-1.07-1.12.48-1.12,1.07-1.12Zm0,5.59c.59,0,1.07.5,1.07,1.12s-.48,1.12-1.07,1.12-1.07-.5-1.07-1.12.48-1.12,1.07-1.12Zm0,5.59c.59,0,1.07.5,1.07,1.12s-.48,1.12-1.07,1.12-1.07-.5-1.07-1.12.48-1.12,1.07-1.12Zm0,5.59c.59,0,1.07.5,1.07,1.12s-.48,1.12-1.07,1.12-1.07-.5-1.07-1.12.48-1.12,1.07-1.12Zm0,5.59c.59,0,1.07.5,1.07,1.12s-.48,1.12-1.07,1.12-1.07-.5-1.07-1.12.48-1.12,1.07-1.12Zm0,5.59c.59,0,1.07.5,1.07,1.12s-.48,1.12-1.07,1.12-1.07-.5-1.07-1.12.48-1.12,1.07-1.12Zm0,5.59c.59,0,1.07.5,1.07,1.12s-.48,1.12-1.07,1.12-1.07-.5-1.07-1.12.48-1.12,1.07-1.12Zm0,5.59c.59,0,1.07.5,1.07,1.12s-.48,1.12-1.07,1.12-1.07-.5-1.07-1.12.48-1.12,1.07-1.12Zm0,5.59c.59,0,1.07.5,1.07,1.12s-.48,1.12-1.07,1.12-1.07-.5-1.07-1.12.48-1.12,1.07-1.12Zm-69.28-3.35c-.59,0-1.07-.5-1.07-1.12s.48-1.12,1.07-1.12,1.07.5,1.07,1.12-.48,1.12-1.07,1.12Zm0-5.59c-.59,0-1.07-.5-1.07-1.12s.48-1.12,1.07-1.12,1.07.5,1.07,1.12-.48,1.12-1.07,1.12Zm0-5.59c-.59,0-1.07-.5-1.07-1.12s.48-1.12,1.07-1.12,1.07.5,1.07,1.12-.48,1.12-1.07,1.12Zm0-5.59c-.59,0-1.07-.5-1.07-1.12s.48-1.12,1.07-1.12,1.07.5,1.07,1.12-.48,1.12-1.07,1.12Zm0-5.59c-.59,0-1.07-.5-1.07-1.12s.48-1.12,1.07-1.12,1.07.5,1.07,1.12-.48,1.12-1.07,1.12Zm0-5.59c-.59,0-1.07-.5-1.07-1.12s.48-1.12,1.07-1.12,1.07.5,1.07,1.12-.48,1.12-1.07,1.12Zm0-5.59c-.59,0-1.07-.5-1.07-1.12s.48-1.12,1.07-1.12,1.07.5,1.07,1.12-.48,1.12-1.07,1.12Zm5.33,44.69c-.59,0-1.07-.5-1.07-1.12s.48-1.12,1.07-1.12,1.07.5,1.07,1.12-.48,1.12-1.07,1.12Zm0-5.59c-.59,0-1.07-.5-1.07-1.12s.48-1.12,1.07-1.12,1.07.5,1.07,1.12-.48,1.12-1.07,1.12Zm0-5.59c-.59,0-1.07-.5-1.07-1.12s.48-1.12,1.07-1.12,1.07.5,1.07,1.12-.48,1.12-1.07,1.12Zm0-5.59c-.59,0-1.07-.5-1.07-1.12s.48-1.12,1.07-1.12,1.07.5,1.07,1.12-.48,1.12-1.07,1.12Zm0-5.59c-.59,0-1.07-.5-1.07-1.12s.48-1.12,1.07-1.12,1.07.5,1.07,1.12-.48,1.12-1.07,1.12Zm0-5.59c-.59,0-1.07-.5-1.07-1.12s.48-1.12,1.07-1.12,1.07.5,1.07,1.12-.48,1.12-1.07,1.12Zm0-5.59c-.59,0-1.07-.5-1.07-1.12s.48-1.12,1.07-1.12,1.07.5,1.07,1.12-.48,1.12-1.07,1.12Zm0-5.59c-.59,0-1.07-.5-1.07-1.12s.48-1.12,1.07-1.12,1.07.5,1.07,1.12-.48,1.12-1.07,1.12Zm0-5.59c-.59,0-1.07-.5-1.07-1.12s.48-1.12,1.07-1.12,1.07.5,1.07,1.12-.48,1.12-1.07,1.12Zm0-5.59c-.59,0-1.07-.5-1.07-1.12s.48-1.12,1.07-1.12,1.07.5,1.07,1.12-.48,1.12-1.07,1.12Zm0-5.59c-.59,0-1.07-.5-1.07-1.12s.48-1.12,1.07-1.12,1.07.5,1.07,1.12-.48,1.12-1.07,1.12Zm5.33,61.45c-.59,0-1.07-.5-1.07-1.12s.48-1.12,1.07-1.12,1.07.5,1.07,1.12-.48,1.12-1.07,1.12Zm0-5.59c-.59,0-1.07-.5-1.07-1.12s.48-1.12,1.07-1.12,1.07.5,1.07,1.12-.48,1.12-1.07,1.12Zm0-5.59c-.59,0-1.07-.5-1.07-1.12s.48-1.12,1.07-1.12,1.07.5,1.07,1.12-.48,1.12-1.07,1.12Zm0-5.59c-.59,0-1.07-.5-1.07-1.12s.48-1.12,1.07-1.12,1.07.5,1.07,1.12-.48,1.12-1.07,1.12Zm0-5.59c-.59,0-1.07-.5-1.07-1.12s.48-1.12,1.07-1.12,1.07.5,1.07,1.12-.48,1.12-1.07,1.12Zm0-5.59c-.59,0-1.07-.5-1.07-1.12s.48-1.12,1.07-1.12,1.07.5,1.07,1.12-.48,1.12-1.07,1.12Zm0-5.59c-.59,0-1.07-.5-1.07-1.12s.48-1.12,1.07-1.12,1.07.5,1.07,1.12-.48,1.12-1.07,1.12Zm0-5.59c-.59,0-1.07-.5-1.07-1.12s.48-1.12,1.07-1.12,1.07.5,1.07,1.12-.48,1.12-1.07,1.12Zm0-5.59c-.59,0-1.07-.5-1.07-1.12s.48-1.12,1.07-1.12,1.07.5,1.07,1.12-.48,1.12-1.07,1.12Zm0-5.59c-.59,0-1.07-.5-1.07-1.12s.48-1.12,1.07-1.12,1.07.5,1.07,1.12-.48,1.12-1.07,1.12Zm0-5.59c-.59,0-1.07-.5-1.07-1.12s.48-1.12,1.07-1.12,1.07.5,1.07,1.12-.48,1.12-1.07,1.12Zm0-5.59c-.59,0-1.07-.5-1.07-1.12s.48-1.12,1.07-1.12,1.07.5,1.07,1.12-.48,1.12-1.07,1.12Zm0-5.59c-.59,0-1.07-.5-1.07-1.12s.48-1.12,1.07-1.12,1.07.5,1.07,1.12-.48,1.12-1.07,1.12Zm5.33,67.03c-.59,0-1.07-.5-1.07-1.12s.48-1.12,1.07-1.12,1.07.5,1.07,1.12-.48,1.12-1.07,1.12Zm0-5.59c-.59,0-1.07-.5-1.07-1.12s.48-1.12,1.07-1.12,1.07.5,1.07,1.12-.48,1.12-1.07,1.12Zm0-5.59c-.59,0-1.07-.5-1.07-1.12s.48-1.12,1.07-1.12,1.07.5,1.07,1.12-.48,1.12-1.07,1.12Zm0-5.59c-.59,0-1.07-.5-1.07-1.12s.48-1.12,1.07-1.12,1.07.5,1.07,1.12-.48,1.12-1.07,1.12Zm0-5.59c-.59,0-1.07-.5-1.07-1.12s.48-1.12,1.07-1.12,1.07.5,1.07,1.12-.48,1.12-1.07,1.12Zm0-5.59c-.59,0-1.07-.5-1.07-1.12s.48-1.12,1.07-1.12,1.07.5,1.07,1.12-.48,1.12-1.07,1.12Zm0-5.59c-.59,0-1.07-.5-1.07-1.12s.48-1.12,1.07-1.12,1.07.5,1.07,1.12-.48,1.12-1.07,1.12Zm0-5.59c-.59,0-1.07-.5-1.07-1.12s.48-1.12,1.07-1.12,1.07.5,1.07,1.12-.48,1.12-1.07,1.12Zm0-5.59c-.59,0-1.07-.5-1.07-1.12s.48-1.12,1.07-1.12,1.07.5,1.07,1.12-.48,1.12-1.07,1.12Zm0-5.59c-.59,0-1.07-.5-1.07-1.12s.48-1.12,1.07-1.12,1.07.5,1.07,1.12-.48,1.12-1.07,1.12Zm0-5.59c-.59,0-1.07-.5-1.07-1.12s.48-1.12,1.07-1.12,1.07.5,1.07,1.12-.48,1.12-1.07,1.12Zm0-5.59c-.59,0-1.07-.5-1.07-1.12s.48-1.12,1.07-1.12,1.07.5,1.07,1.12-.48,1.12-1.07,1.12Zm0-5.59c-.59,0-1.07-.5-1.07-1.12s.48-1.12,1.07-1.12,1.07.5,1.07,1.12-.48,1.12-1.07,1.12Zm5.33,72.62c-.59,0-1.07-.5-1.07-1.12s.48-1.12,1.07-1.12,1.07.5,1.07,1.12-.48,1.12-1.07,1.12Zm0-5.59c-.59,0-1.07-.5-1.07-1.12s.48-1.12,1.07-1.12,1.07.5,1.07,1.12-.48,1.12-1.07,1.12Zm0-5.59c-.59,0-1.07-.5-1.07-1.12s.48-1.12,1.07-1.12,1.07.5,1.07,1.12-.48,1.12-1.07,1.12Zm0-5.59c-.59,0-1.07-.5-1.07-1.12s.48-1.12,1.07-1.12,1.07.5,1.07,1.12-.48,1.12-1.07,1.12Zm0-5.59c-.59,0-1.07-.5-1.07-1.12s.48-1.12,1.07-1.12,1.07.5,1.07,1.12-.48,1.12-1.07,1.12Zm0-5.59c-.59,0-1.07-.5-1.07-1.12s.48-1.12,1.07-1.12,1.07.5,1.07,1.12-.48,1.12-1.07,1.12Zm0-5.59c-.59,0-1.07-.5-1.07-1.12s.48-1.12,1.07-1.12,1.07.5,1.07,1.12-.48,1.12-1.07,1.12Zm0-5.59c-.59,0-1.07-.5-1.07-1.12s.48-1.12,1.07-1.12,1.07.5,1.07,1.12-.48,1.12-1.07,1.12Zm0-5.59c-.59,0-1.07-.5-1.07-1.12s.48-1.12,1.07-1.12,1.07.5,1.07,1.12-.48,1.12-1.07,1.12Zm0-5.59c-.59,0-1.07-.5-1.07-1.12s.48-1.12,1.07-1.12,1.07.5,1.07,1.12-.48,1.12-1.07,1.12Zm0-5.59c-.59,0-1.07-.5-1.07-1.12s.48-1.12,1.07-1.12,1.07.5,1.07,1.12-.48,1.12-1.07,1.12Zm0-5.59c-.59,0-1.07-.5-1.07-1.12s.48-1.12,1.07-1.12,1.07.5,1.07,1.12-.48,1.12-1.07,1.12Zm0-5.59c-.59,0-1.07-.5-1.07-1.12s.48-1.12,1.07-1.12,1.07.5,1.07,1.12-.48,1.12-1.07,1.12Zm0-5.59c-.59,0-1.07-.5-1.07-1.12s.48-1.12,1.07-1.12,1.07.5,1.07,1.12-.48,1.12-1.07,1.12Zm0-5.59c-.59,0-1.07-.5-1.07-1.12s.48-1.12,1.07-1.12,1.07.5,1.07,1.12-.48,1.12-1.07,1.12Zm5.33,78.2c-.59,0-1.07-.5-1.07-1.12s.48-1.12,1.07-1.12,1.07.5,1.07,1.12-.48,1.12-1.07,1.12Zm0-5.59c-.59,0-1.07-.5-1.07-1.12s.48-1.12,1.07-1.12,1.07.5,1.07,1.12-.48,1.12-1.07,1.12Zm0-5.59c-.59,0-1.07-.5-1.07-1.12s.48-1.12,1.07-1.12,1.07.5,1.07,1.12-.48,1.12-1.07,1.12Zm0-5.59c-.59,0-1.07-.5-1.07-1.12s.48-1.12,1.07-1.12,1.07.5,1.07,1.12-.48,1.12-1.07,1.12Zm0-5.59c-.59,0-1.07-.5-1.07-1.12s.48-1.12,1.07-1.12,1.07.5,1.07,1.12-.48,1.12-1.07,1.12Zm0-5.59c-.59,0-1.07-.5-1.07-1.12s.48-1.12,1.07-1.12,1.07.5,1.07,1.12-.48,1.12-1.07,1.12Zm0-5.59c-.59,0-1.07-.5-1.07-1.12s.48-1.12,1.07-1.12,1.07.5,1.07,1.12-.48,1.12-1.07,1.12Zm0-5.59c-.59,0-1.07-.5-1.07-1.12s.48-1.12,1.07-1.12,1.07.5,1.07,1.12-.48,1.12-1.07,1.12Zm0-5.59c-.59,0-1.07-.5-1.07-1.12s.48-1.12,1.07-1.12,1.07.5,1.07,1.12-.48,1.12-1.07,1.12Zm0-5.59c-.59,0-1.07-.5-1.07-1.12s.48-1.12,1.07-1.12,1.07.5,1.07,1.12-.48,1.12-1.07,1.12Zm0-5.59c-.59,0-1.07-.5-1.07-1.12s.48-1.12,1.07-1.12,1.07.5,1.07,1.12-.48,1.12-1.07,1.12Zm0-5.59c-.59,0-1.07-.5-1.07-1.12s.48-1.12,1.07-1.12,1.07.5,1.07,1.12-.48,1.12-1.07,1.12Zm0-5.59c-.59,0-1.07-.5-1.07-1.12s.48-1.12,1.07-1.12,1.07.5,1.07,1.12-.48,1.12-1.07,1.12Zm0-5.59c-.59,0-1.07-.5-1.07-1.12s.48-1.12,1.07-1.12,1.07.5,1.07,1.12-.48,1.12-1.07,1.12Zm0-5.59c-.59,0-1.07-.5-1.07-1.12s.48-1.12,1.07-1.12,1.07.5,1.07,1.12-.48,1.12-1.07,1.12Zm5.33,78.2c-.59,0-1.07-.5-1.07-1.12s.48-1.12,1.07-1.12,1.07.5,1.07,1.12-.48,1.12-1.07,1.12Zm0-5.59c-.59,0-1.07-.5-1.07-1.12s.48-1.12,1.07-1.12,1.07.5,1.07,1.12-.48,1.12-1.07,1.12Zm0-5.59c-.59,0-1.07-.5-1.07-1.12s.48-1.12,1.07-1.12,1.07.5,1.07,1.12-.48,1.12-1.07,1.12Zm0-5.59c-.59,0-1.07-.5-1.07-1.12s.48-1.12,1.07-1.12,1.07.5,1.07,1.12-.48,1.12-1.07,1.12Zm0-5.59c-.59,0-1.07-.5-1.07-1.12s.48-1.12,1.07-1.12,1.07.5,1.07,1.12-.48,1.12-1.07,1.12Zm0-5.59c-.59,0-1.07-.5-1.07-1.12s.48-1.12,1.07-1.12,1.07.5,1.07,1.12-.48,1.12-1.07,1.12Zm0-5.59c-.59,0-1.07-.5-1.07-1.12s.48-1.12,1.07-1.12,1.07.5,1.07,1.12-.48,1.12-1.07,1.12Zm0-5.59c-.59,0-1.07-.5-1.07-1.12s.48-1.12,1.07-1.12,1.07.5,1.07,1.12-.48,1.12-1.07,1.12Zm0-5.59c-.59,0-1.07-.5-1.07-1.12s.48-1.12,1.07-1.12,1.07.5,1.07,1.12-.48,1.12-1.07,1.12Zm0-5.59c-.59,0-1.07-.5-1.07-1.12s.48-1.12,1.07-1.12,1.07.5,1.07,1.12-.48,1.12-1.07,1.12Zm0-5.59c-.59,0-1.07-.5-1.07-1.12s.48-1.12,1.07-1.12,1.07.5,1.07,1.12-.48,1.12-1.07,1.12Zm0-5.59c-.59,0-1.07-.5-1.07-1.12s.48-1.12,1.07-1.12,1.07.5,1.07,1.12-.48,1.12-1.07,1.12Zm0-5.59c-.59,0-1.07-.5-1.07-1.12s.48-1.12,1.07-1.12,1.07.5,1.07,1.12-.48,1.12-1.07,1.12Zm0-5.59c-.59,0-1.07-.5-1.07-1.12s.48-1.12,1.07-1.12,1.07.5,1.07,1.12-.48,1.12-1.07,1.12Zm0-5.59c-.59,0-1.07-.5-1.07-1.12s.48-1.12,1.07-1.12,1.07.5,1.07,1.12-.48,1.12-1.07,1.12Zm5.33,78.2c-.59,0-1.07-.5-1.07-1.12s.48-1.12,1.07-1.12,1.07.5,1.07,1.12-.48,1.12-1.07,1.12Zm0-5.59c-.59,0-1.07-.5-1.07-1.12s.48-1.12,1.07-1.12,1.07.5,1.07,1.12-.48,1.12-1.07,1.12Zm0-5.59c-.59,0-1.07-.5-1.07-1.12s.48-1.12,1.07-1.12,1.07.5,1.07,1.12-.48,1.12-1.07,1.12Zm0-5.59c-.59,0-1.07-.5-1.07-1.12s.48-1.12,1.07-1.12,1.07.5,1.07,1.12-.48,1.12-1.07,1.12Zm0-5.59c-.59,0-1.07-.5-1.07-1.12s.48-1.12,1.07-1.12,1.07.5,1.07,1.12-.48,1.12-1.07,1.12Zm0-5.59c-.59,0-1.07-.5-1.07-1.12s.48-1.12,1.07-1.12,1.07.5,1.07,1.12-.48,1.12-1.07,1.12Zm0-5.59c-.59,0-1.07-.5-1.07-1.12s.48-1.12,1.07-1.12,1.07.5,1.07,1.12-.48,1.12-1.07,1.12Zm0-5.59c-.59,0-1.07-.5-1.07-1.12s.48-1.12,1.07-1.12,1.07.5,1.07,1.12-.48,1.12-1.07,1.12Zm0-5.59c-.59,0-1.07-.5-1.07-1.12s.48-1.12,1.07-1.12,1.07.5,1.07,1.12-.48,1.12-1.07,1.12Zm0-5.59c-.59,0-1.07-.5-1.07-1.12s.48-1.12,1.07-1.12,1.07.5,1.07,1.12-.48,1.12-1.07,1.12Zm0-5.59c-.59,0-1.07-.5-1.07-1.12s.48-1.12,1.07-1.12,1.07.5,1.07,1.12-.48,1.12-1.07,1.12Zm0-5.59c-.59,0-1.07-.5-1.07-1.12s.48-1.12,1.07-1.12,1.07.5,1.07,1.12-.48,1.12-1.07,1.12Zm0-5.59c-.59,0-1.07-.5-1.07-1.12s.48-1.12,1.07-1.12,1.07.5,1.07,1.12-.48,1.12-1.07,1.12Zm0-5.59c-.59,0-1.07-.5-1.07-1.12s.48-1.12,1.07-1.12,1.07.5,1.07,1.12-.48,1.12-1.07,1.12Zm0-5.59c-.59,0-1.07-.5-1.07-1.12s.48-1.12,1.07-1.12,1.07.5,1.07,1.12-.48,1.12-1.07,1.12Zm5.33,78.2c-.59,0-1.07-.5-1.07-1.12s.48-1.12,1.07-1.12,1.07.5,1.07,1.12-.48,1.12-1.07,1.12Zm0-5.59c-.59,0-1.07-.5-1.07-1.12s.48-1.12,1.07-1.12,1.07.5,1.07,1.12-.48,1.12-1.07,1.12Zm0-5.59c-.59,0-1.07-.5-1.07-1.12s.48-1.12,1.07-1.12,1.07.5,1.07,1.12-.48,1.12-1.07,1.12Zm0-5.59c-.59,0-1.07-.5-1.07-1.12s.48-1.12,1.07-1.12,1.07.5,1.07,1.12-.48,1.12-1.07,1.12Zm0-5.59c-.59,0-1.07-.5-1.07-1.12s.48-1.12,1.07-1.12,1.07.5,1.07,1.12-.48,1.12-1.07,1.12Zm0-5.59c-.59,0-1.07-.5-1.07-1.12s.48-1.12,1.07-1.12,1.07.5,1.07,1.12-.48,1.12-1.07,1.12Zm0-5.59c-.59,0-1.07-.5-1.07-1.12s.48-1.12,1.07-1.12,1.07.5,1.07,1.12-.48,1.12-1.07,1.12Zm0-5.59c-.59,0-1.07-.5-1.07-1.12s.48-1.12,1.07-1.12,1.07.5,1.07,1.12-.48,1.12-1.07,1.12Zm0-5.59c-.59,0-1.07-.5-1.07-1.12s.48-1.12,1.07-1.12,1.07.5,1.07,1.12-.48,1.12-1.07,1.12Zm0-5.59c-.59,0-1.07-.5-1.07-1.12s.48-1.12,1.07-1.12,1.07.5,1.07,1.12-.48,1.12-1.07,1.12Zm0-5.59c-.59,0-1.07-.5-1.07-1.12s.48-1.12,1.07-1.12,1.07.5,1.07,1.12-.48,1.12-1.07,1.12Zm0-5.59c-.59,0-1.07-.5-1.07-1.12s.48-1.12,1.07-1.12,1.07.5,1.07,1.12-.48,1.12-1.07,1.12Zm0-5.59c-.59,0-1.07-.5-1.07-1.12s.48-1.12,1.07-1.12,1.07.5,1.07,1.12-.48,1.12-1.07,1.12Zm0-5.59c-.59,0-1.07-.5-1.07-1.12s.48-1.12,1.07-1.12,1.07.5,1.07,1.12-.48,1.12-1.07,1.12Zm0-5.59c-.59,0-1.07-.5-1.07-1.12s.48-1.12,1.07-1.12,1.07.5,1.07,1.12-.48,1.12-1.07,1.12Zm5.33,78.2c-.59,0-1.07-.5-1.07-1.12s.48-1.12,1.07-1.12,1.07.5,1.07,1.12-.48,1.12-1.07,1.12Zm0-5.59c-.59,0-1.07-.5-1.07-1.12s.48-1.12,1.07-1.12,1.07.5,1.07,1.12-.48,1.12-1.07,1.12Zm0-5.59c-.59,0-1.07-.5-1.07-1.12s.48-1.12,1.07-1.12,1.07.5,1.07,1.12-.48,1.12-1.07,1.12Zm0-5.59c-.59,0-1.07-.5-1.07-1.12s.48-1.12,1.07-1.12,1.07.5,1.07,1.12-.48,1.12-1.07,1.12Zm0-5.59c-.59,0-1.07-.5-1.07-1.12s.48-1.12,1.07-1.12,1.07.5,1.07,1.12-.48,1.12-1.07,1.12Zm0-5.59c-.59,0-1.07-.5-1.07-1.12s.48-1.12,1.07-1.12,1.07.5,1.07,1.12-.48,1.12-1.07,1.12Zm0-5.59c-.59,0-1.07-.5-1.07-1.12s.48-1.12,1.07-1.12,1.07.5,1.07,1.12-.48,1.12-1.07,1.12Zm0-5.59c-.59,0-1.07-.5-1.07-1.12s.48-1.12,1.07-1.12,1.07.5,1.07,1.12-.48,1.12-1.07,1.12Zm0-5.59c-.59,0-1.07-.5-1.07-1.12s.48-1.12,1.07-1.12,1.07.5,1.07,1.12-.48,1.12-1.07,1.12Zm0-5.59c-.59,0-1.07-.5-1.07-1.12s.48-1.12,1.07-1.12,1.07.5,1.07,1.12-.48,1.12-1.07,1.12Zm0-5.59c-.59,0-1.07-.5-1.07-1.12s.48-1.12,1.07-1.12,1.07.5,1.07,1.12-.48,1.12-1.07,1.12Zm0-5.59c-.59,0-1.07-.5-1.07-1.12s.48-1.12,1.07-1.12,1.07.5,1.07,1.12-.48,1.12-1.07,1.12Zm0-5.59c-.59,0-1.07-.5-1.07-1.12s.48-1.12,1.07-1.12,1.07.5,1.07,1.12-.48,1.12-1.07,1.12Zm0-5.59c-.59,0-1.07-.5-1.07-1.12s.48-1.12,1.07-1.12,1.07.5,1.07,1.12-.48,1.12-1.07,1.12Zm0-5.59c-.59,0-1.07-.5-1.07-1.12s.48-1.12,1.07-1.12,1.07.5,1.07,1.12-.48,1.12-1.07,1.12Zm5.33,78.2c-.59,0-1.07-.5-1.07-1.12s.48-1.12,1.07-1.12,1.07.5,1.07,1.12-.48,1.12-1.07,1.12Zm0-5.59c-.59,0-1.07-.5-1.07-1.12s.48-1.12,1.07-1.12,1.07.5,1.07,1.12-.48,1.12-1.07,1.12Zm0-5.59c-.59,0-1.07-.5-1.07-1.12s.48-1.12,1.07-1.12,1.07.5,1.07,1.12-.48,1.12-1.07,1.12Zm0-5.59c-.59,0-1.07-.5-1.07-1.12s.48-1.12,1.07-1.12,1.07.5,1.07,1.12-.48,1.12-1.07,1.12Zm0-5.59c-.59,0-1.07-.5-1.07-1.12s.48-1.12,1.07-1.12,1.07.5,1.07,1.12-.48,1.12-1.07,1.12Zm0-5.59c-.59,0-1.07-.5-1.07-1.12s.48-1.12,1.07-1.12,1.07.5,1.07,1.12-.48,1.12-1.07,1.12Zm0-5.59c-.59,0-1.07-.5-1.07-1.12s.48-1.12,1.07-1.12,1.07.5,1.07,1.12-.48,1.12-1.07,1.12Zm0-5.59c-.59,0-1.07-.5-1.07-1.12s.48-1.12,1.07-1.12,1.07.5,1.07,1.12-.48,1.12-1.07,1.12Zm0-5.59c-.59,0-1.07-.5-1.07-1.12s.48-1.12,1.07-1.12,1.07.5,1.07,1.12-.48,1.12-1.07,1.12Zm0-5.59c-.59,0-1.07-.5-1.07-1.12s.48-1.12,1.07-1.12,1.07.5,1.07,1.12-.48,1.12-1.07,1.12Zm0-5.59c-.59,0-1.07-.5-1.07-1.12s.48-1.12,1.07-1.12,1.07.5,1.07,1.12-.48,1.12-1.07,1.12Zm0-5.59c-.59,0-1.07-.5-1.07-1.12s.48-1.12,1.07-1.12,1.07.5,1.07,1.12-.48,1.12-1.07,1.12Zm0-5.59c-.59,0-1.07-.5-1.07-1.12s.48-1.12,1.07-1.12,1.07.5,1.07,1.12-.48,1.12-1.07,1.12Zm0-5.59c-.59,0-1.07-.5-1.07-1.12s.48-1.12,1.07-1.12,1.07.5,1.07,1.12-.48,1.12-1.07,1.12Zm0-5.59c-.59,0-1.07-.5-1.07-1.12s.48-1.12,1.07-1.12,1.07.5,1.07,1.12-.48,1.12-1.07,1.12Zm5.33,72.62c-.59,0-1.07-.5-1.07-1.12s.48-1.12,1.07-1.12,1.07.5,1.07,1.12-.48,1.12-1.07,1.12Zm0-5.59c-.59,0-1.07-.5-1.07-1.12s.48-1.12,1.07-1.12,1.07.5,1.07,1.12-.48,1.12-1.07,1.12Zm0-5.59c-.59,0-1.07-.5-1.07-1.12s.48-1.12,1.07-1.12,1.07.5,1.07,1.12-.48,1.12-1.07,1.12Zm0-5.59c-.59,0-1.07-.5-1.07-1.12s.48-1.12,1.07-1.12,1.07.5,1.07,1.12-.48,1.12-1.07,1.12Zm0-5.59c-.59,0-1.07-.5-1.07-1.12s.48-1.12,1.07-1.12,1.07.5,1.07,1.12-.48,1.12-1.07,1.12Zm0-5.59c-.59,0-1.07-.5-1.07-1.12s.48-1.12,1.07-1.12,1.07.5,1.07,1.12-.48,1.12-1.07,1.12Zm0-5.59c-.59,0-1.07-.5-1.07-1.12s.48-1.12,1.07-1.12,1.07.5,1.07,1.12-.48,1.12-1.07,1.12Zm0-5.59c-.59,0-1.07-.5-1.07-1.12s.48-1.12,1.07-1.12,1.07.5,1.07,1.12-.48,1.12-1.07,1.12Zm0-5.59c-.59,0-1.07-.5-1.07-1.12s.48-1.12,1.07-1.12,1.07.5,1.07,1.12-.48,1.12-1.07,1.12Zm0-5.59c-.59,0-1.07-.5-1.07-1.12s.48-1.12,1.07-1.12,1.07.5,1.07,1.12-.48,1.12-1.07,1.12Zm0-5.59c-.59,0-1.07-.5-1.07-1.12s.48-1.12,1.07-1.12,1.07.5,1.07,1.12-.48,1.12-1.07,1.12Zm0-5.59c-.59,0-1.07-.5-1.07-1.12s.48-1.12,1.07-1.12,1.07.5,1.07,1.12-.48,1.12-1.07,1.12Zm0-5.59c-.59,0-1.07-.5-1.07-1.12s.48-1.12,1.07-1.12,1.07.5,1.07,1.12-.48,1.12-1.07,1.12Zm5.33,61.45c-.59,0-1.07-.5-1.07-1.12s.48-1.12,1.07-1.12,1.07.5,1.07,1.12-.48,1.12-1.07,1.12Zm0-5.59c-.59,0-1.07-.5-1.07-1.12s.48-1.12,1.07-1.12,1.07.5,1.07,1.12-.48,1.12-1.07,1.12Zm0-5.59c-.59,0-1.07-.5-1.07-1.12s.48-1.12,1.07-1.12,1.07.5,1.07,1.12-.48,1.12-1.07,1.12Zm0-5.59c-.59,0-1.07-.5-1.07-1.12s.48-1.12,1.07-1.12,1.07.5,1.07,1.12-.48,1.12-1.07,1.12Zm0-5.59c-.59,0-1.07-.5-1.07-1.12s.48-1.12,1.07-1.12,1.07.5,1.07,1.12-.48,1.12-1.07,1.12Zm0-5.59c-.59,0-1.07-.5-1.07-1.12s.48-1.12,1.07-1.12,1.07.5,1.07,1.12-.48,1.12-1.07,1.12Zm0-5.59c-.59,0-1.07-.5-1.07-1.12s.48-1.12,1.07-1.12,1.07.5,1.07,1.12-.48,1.12-1.07,1.12Zm0-5.59c-.59,0-1.07-.5-1.07-1.12s.48-1.12,1.07-1.12,1.07.5,1.07,1.12-.48,1.12-1.07,1.12Zm0-5.59c-.59,0-1.07-.5-1.07-1.12s.48-1.12,1.07-1.12,1.07.5,1.07,1.12-.48,1.12-1.07,1.12Zm0-5.59c-.59,0-1.07-.5-1.07-1.12s.48-1.12,1.07-1.12,1.07.5,1.07,1.12-.48,1.12-1.07,1.12Zm0-5.59c-.59,0-1.07-.5-1.07-1.12s.48-1.12,1.07-1.12,1.07.5,1.07,1.12-.48,1.12-1.07,1.12Z"/>
              <path class="cls-3" d="m575.57,185.45c-.46,0-.85.31-.99.75.62-.08,1.23-.18,1.84-.28-.19-.27-.49-.46-.84-.46Z"/>
              <path class="cls-3" d="m570.24,185.45c-.59,0-1.07.5-1.07,1.12.71,0,1.42-.02,2.12-.06-.03-.59-.49-1.06-1.06-1.06Z"/>
              <path class="cls-3" d="m564.91,185.45c-.47,0-.86.32-1,.77.67.09,1.35.16,2.04.21-.07-.55-.5-.98-1.04-.98Z"/>
              <path class="cls-3" d="m590.6,180.51c.34-.21.68-.42,1.01-.63-.02,0-.04-.01-.05-.01-.43,0-.79.27-.96.64Z"/>
              <ellipse class="cls-3" cx="586.23" cy="180.98" rx="1.07" ry="1.12"/>
              <ellipse class="cls-3" cx="580.9" cy="180.98" rx="1.07" ry="1.12"/>
              <ellipse class="cls-3" cx="575.57" cy="180.98" rx="1.07" ry="1.12"/>
              <ellipse class="cls-3" cx="570.24" cy="180.98" rx="1.07" ry="1.12"/>
              <ellipse class="cls-3" cx="564.91" cy="180.98" rx="1.07" ry="1.12"/>
              <ellipse class="cls-3" cx="559.58" cy="180.98" rx="1.07" ry="1.12"/>
              <ellipse class="cls-3" cx="554.25" cy="180.98" rx="1.07" ry="1.12"/>
              <path class="cls-3" d="m548.92,179.87c-.47,0-.85.32-1,.75.6.36,1.21.71,1.82,1.04.14-.19.24-.42.24-.67,0-.62-.48-1.12-1.07-1.12Z"/>
              <path class="cls-3" d="m596.89,174.28c-.59,0-1.07.5-1.07,1.12,0,.4.21.73.51.93.52-.45,1.03-.91,1.52-1.38-.17-.39-.54-.66-.97-.66Z"/>
              <ellipse class="cls-3" cx="591.56" cy="175.4" rx="1.07" ry="1.12"/>
              <ellipse class="cls-3" cx="586.23" cy="175.4" rx="1.07" ry="1.12"/>
              <ellipse class="cls-3" cx="580.9" cy="175.4" rx="1.07" ry="1.12"/>
              <ellipse class="cls-3" cx="575.57" cy="175.4" rx="1.07" ry="1.12"/>
              <ellipse class="cls-3" cx="570.24" cy="175.4" rx="1.07" ry="1.12"/>
              <ellipse class="cls-3" cx="564.91" cy="175.4" rx="1.07" ry="1.12"/>
              <ellipse class="cls-3" cx="559.58" cy="175.4" rx="1.07" ry="1.12"/>
              <ellipse class="cls-3" cx="554.25" cy="175.4" rx="1.07" ry="1.12"/>
              <ellipse class="cls-3" cx="548.92" cy="175.4" rx="1.07" ry="1.12"/>
              <ellipse class="cls-3" cx="543.59" cy="175.4" rx="1.07" ry="1.12"/>
              <path class="cls-3" d="m602.22,168.7c-.59,0-1.07.5-1.07,1.12,0,.41.22.76.54.95.45-.55.88-1.12,1.31-1.7-.2-.23-.47-.38-.78-.38Z"/>
              <ellipse class="cls-3" cx="596.89" cy="169.81" rx="1.07" ry="1.12"/>
              <ellipse class="cls-3" cx="591.56" cy="169.81" rx="1.07" ry="1.12"/>
              <ellipse class="cls-3" cx="586.23" cy="169.81" rx="1.07" ry="1.12"/>
              <ellipse class="cls-3" cx="580.9" cy="169.81" rx="1.07" ry="1.12"/>
              <ellipse class="cls-3" cx="575.57" cy="169.81" rx="1.07" ry="1.12"/>
              <ellipse class="cls-3" cx="570.24" cy="169.81" rx="1.07" ry="1.12"/>
              <ellipse class="cls-3" cx="564.91" cy="169.81" rx="1.07" ry="1.12"/>
              <ellipse class="cls-3" cx="559.58" cy="169.81" rx="1.07" ry="1.12"/>
              <ellipse class="cls-3" cx="554.25" cy="169.81" rx="1.07" ry="1.12"/>
              <ellipse class="cls-3" cx="548.92" cy="169.81" rx="1.07" ry="1.12"/>
              <ellipse class="cls-3" cx="543.59" cy="169.81" rx="1.07" ry="1.12"/>
              <ellipse class="cls-3" cx="538.26" cy="169.81" rx="1.07" ry="1.12"/>
              <ellipse class="cls-3" cx="602.22" cy="164.23" rx="1.07" ry="1.12"/>
              <ellipse class="cls-3" cx="596.89" cy="164.23" rx="1.07" ry="1.12"/>
              <ellipse class="cls-3" cx="591.56" cy="164.23" rx="1.07" ry="1.12"/>
              <ellipse class="cls-3" cx="586.23" cy="164.23" rx="1.07" ry="1.12"/>
              <ellipse class="cls-3" cx="580.9" cy="164.23" rx="1.07" ry="1.12"/>
              <ellipse class="cls-3" cx="575.57" cy="164.23" rx="1.07" ry="1.12"/>
              <ellipse class="cls-3" cx="570.24" cy="164.23" rx="1.07" ry="1.12"/>
              <ellipse class="cls-3" cx="564.91" cy="164.23" rx="1.07" ry="1.12"/>
              <ellipse class="cls-3" cx="559.58" cy="164.23" rx="1.07" ry="1.12"/>
              <ellipse class="cls-3" cx="554.25" cy="164.23" rx="1.07" ry="1.12"/>
              <ellipse class="cls-3" cx="548.92" cy="164.23" rx="1.07" ry="1.12"/>
              <ellipse class="cls-3" cx="543.59" cy="164.23" rx="1.07" ry="1.12"/>
              <ellipse class="cls-3" cx="538.26" cy="164.23" rx="1.07" ry="1.12"/>
              <path class="cls-3" d="m534,164.23c0-.62-.48-1.12-1.07-1.12-.42,0-.77.26-.95.63.29.54.58,1.07.89,1.6.02,0,.03.01.05.01.59,0,1.07-.5,1.07-1.12Z"/>
              <ellipse class="cls-3" cx="607.55" cy="158.64" rx="1.07" ry="1.12"/>
              <ellipse class="cls-3" cx="602.22" cy="158.64" rx="1.07" ry="1.12"/>
              <ellipse class="cls-3" cx="596.89" cy="158.64" rx="1.07" ry="1.12"/>
              <ellipse class="cls-3" cx="591.56" cy="158.64" rx="1.07" ry="1.12"/>
              <ellipse class="cls-3" cx="586.23" cy="158.64" rx="1.07" ry="1.12"/>
              <ellipse class="cls-3" cx="580.9" cy="158.64" rx="1.07" ry="1.12"/>
              <ellipse class="cls-3" cx="575.57" cy="158.64" rx="1.07" ry="1.12"/>
              <ellipse class="cls-3" cx="570.24" cy="158.64" rx="1.07" ry="1.12"/>
              <ellipse class="cls-3" cx="564.91" cy="158.64" rx="1.07" ry="1.12"/>
              <ellipse class="cls-3" cx="559.58" cy="158.64" rx="1.07" ry="1.12"/>
              <ellipse class="cls-3" cx="554.25" cy="158.64" rx="1.07" ry="1.12"/>
              <ellipse class="cls-3" cx="548.92" cy="158.64" rx="1.07" ry="1.12"/>
              <ellipse class="cls-3" cx="543.59" cy="158.64" rx="1.07" ry="1.12"/>
              <ellipse class="cls-3" cx="538.26" cy="158.64" rx="1.07" ry="1.12"/>
              <ellipse class="cls-3" cx="532.94" cy="158.64" rx="1.07" ry="1.12"/>
              <ellipse class="cls-3" cx="607.55" cy="153.05" rx="1.07" ry="1.12"/>
              <ellipse class="cls-3" cx="602.22" cy="153.05" rx="1.07" ry="1.12"/>
              <ellipse class="cls-3" cx="596.89" cy="153.05" rx="1.07" ry="1.12"/>
              <ellipse class="cls-3" cx="591.56" cy="153.05" rx="1.07" ry="1.12"/>
              <ellipse class="cls-3" cx="586.23" cy="153.05" rx="1.07" ry="1.12"/>
              <ellipse class="cls-3" cx="580.9" cy="153.05" rx="1.07" ry="1.12"/>
              <ellipse class="cls-3" cx="575.57" cy="153.05" rx="1.07" ry="1.12"/>
              <ellipse class="cls-3" cx="570.24" cy="153.05" rx="1.07" ry="1.12"/>
              <ellipse class="cls-3" cx="564.91" cy="153.05" rx="1.07" ry="1.12"/>
              <ellipse class="cls-3" cx="559.58" cy="153.05" rx="1.07" ry="1.12"/>
              <ellipse class="cls-3" cx="554.25" cy="153.05" rx="1.07" ry="1.12"/>
              <ellipse class="cls-3" cx="548.92" cy="153.05" rx="1.07" ry="1.12"/>
              <ellipse class="cls-3" cx="543.59" cy="153.05" rx="1.07" ry="1.12"/>
              <ellipse class="cls-3" cx="538.26" cy="153.05" rx="1.07" ry="1.12"/>
              <ellipse class="cls-3" cx="532.94" cy="153.05" rx="1.07" ry="1.12"/>
              <path class="cls-3" d="m528.67,153.05c0-.6-.46-1.09-1.03-1.11.15.69.32,1.38.5,2.06.31-.19.53-.54.53-.95Z"/>
              <ellipse class="cls-3" cx="607.55" cy="147.47" rx="1.07" ry="1.12"/>
              <ellipse class="cls-3" cx="602.22" cy="147.47" rx="1.07" ry="1.12"/>
              <ellipse class="cls-3" cx="596.89" cy="147.47" rx="1.07" ry="1.12"/>
              <ellipse class="cls-3" cx="591.56" cy="147.47" rx="1.07" ry="1.12"/>
              <ellipse class="cls-3" cx="586.23" cy="147.47" rx="1.07" ry="1.12"/>
              <ellipse class="cls-3" cx="580.9" cy="147.47" rx="1.07" ry="1.12"/>
              <ellipse class="cls-3" cx="575.57" cy="147.47" rx="1.07" ry="1.12"/>
              <ellipse class="cls-3" cx="570.24" cy="147.47" rx="1.07" ry="1.12"/>
              <ellipse class="cls-3" cx="564.91" cy="147.47" rx="1.07" ry="1.12"/>
              <ellipse class="cls-3" cx="559.58" cy="147.47" rx="1.07" ry="1.12"/>
              <ellipse class="cls-3" cx="554.25" cy="147.47" rx="1.07" ry="1.12"/>
              <ellipse class="cls-3" cx="548.92" cy="147.47" rx="1.07" ry="1.12"/>
              <ellipse class="cls-3" cx="543.59" cy="147.47" rx="1.07" ry="1.12"/>
              <ellipse class="cls-3" cx="538.26" cy="147.47" rx="1.07" ry="1.12"/>
              <ellipse class="cls-3" cx="532.94" cy="147.47" rx="1.07" ry="1.12"/>
              <path class="cls-3" d="m528.67,147.47c0-.62-.48-1.12-1.07-1.12-.33,0-.61.17-.81.41.06.53.12,1.07.19,1.59.18.13.38.23.61.23.59,0,1.07-.5,1.07-1.12Z"/>
              <ellipse class="cls-3" cx="607.55" cy="141.88" rx="1.07" ry="1.12"/>
              <ellipse class="cls-3" cx="602.22" cy="141.88" rx="1.07" ry="1.12"/>
              <ellipse class="cls-3" cx="596.89" cy="141.88" rx="1.07" ry="1.12"/>
              <ellipse class="cls-3" cx="591.56" cy="141.88" rx="1.07" ry="1.12"/>
              <ellipse class="cls-3" cx="586.23" cy="141.88" rx="1.07" ry="1.12"/>
              <ellipse class="cls-3" cx="580.9" cy="141.88" rx="1.07" ry="1.12"/>
              <ellipse class="cls-3" cx="575.57" cy="141.88" rx="1.07" ry="1.12"/>
              <ellipse class="cls-3" cx="570.24" cy="141.88" rx="1.07" ry="1.12"/>
              <ellipse class="cls-3" cx="564.91" cy="141.88" rx="1.07" ry="1.12"/>
              <ellipse class="cls-3" cx="559.58" cy="141.88" rx="1.07" ry="1.12"/>
              <ellipse class="cls-3" cx="554.25" cy="141.88" rx="1.07" ry="1.12"/>
              <ellipse class="cls-3" cx="548.92" cy="141.88" rx="1.07" ry="1.12"/>
              <ellipse class="cls-3" cx="543.59" cy="141.88" rx="1.07" ry="1.12"/>
              <ellipse class="cls-3" cx="538.26" cy="141.88" rx="1.07" ry="1.12"/>
              <ellipse class="cls-3" cx="532.94" cy="141.88" rx="1.07" ry="1.12"/>
              <ellipse class="cls-3" cx="527.61" cy="141.88" rx="1.07" ry="1.12"/>
              <ellipse class="cls-3" cx="607.55" cy="136.3" rx="1.07" ry="1.12"/>
              <ellipse class="cls-3" cx="602.22" cy="136.3" rx="1.07" ry="1.12"/>
              <ellipse class="cls-3" cx="596.89" cy="136.3" rx="1.07" ry="1.12"/>
              <ellipse class="cls-3" cx="591.56" cy="136.3" rx="1.07" ry="1.12"/>
              <ellipse class="cls-3" cx="586.23" cy="136.3" rx="1.07" ry="1.12"/>
              <ellipse class="cls-3" cx="580.9" cy="136.3" rx="1.07" ry="1.12"/>
              <ellipse class="cls-3" cx="575.57" cy="136.3" rx="1.07" ry="1.12"/>
              <ellipse class="cls-3" cx="570.24" cy="136.3" rx="1.07" ry="1.12"/>
              <ellipse class="cls-3" cx="564.91" cy="136.3" rx="1.07" ry="1.12"/>
              <ellipse class="cls-3" cx="559.58" cy="136.3" rx="1.07" ry="1.12"/>
              <ellipse class="cls-3" cx="554.25" cy="136.3" rx="1.07" ry="1.12"/>
              <ellipse class="cls-3" cx="548.92" cy="136.3" rx="1.07" ry="1.12"/>
              <ellipse class="cls-3" cx="543.59" cy="136.3" rx="1.07" ry="1.12"/>
              <ellipse class="cls-3" cx="538.26" cy="136.3" rx="1.07" ry="1.12"/>
              <ellipse class="cls-3" cx="532.94" cy="136.3" rx="1.07" ry="1.12"/>
              <path class="cls-3" d="m527.61,137.41c.59,0,1.07-.5,1.07-1.12s-.48-1.12-1.07-1.12c-.23,0-.44.1-.61.23-.07.53-.14,1.06-.19,1.59.2.25.48.41.81.41Z"/>
              <ellipse class="cls-3" cx="607.55" cy="130.71" rx="1.07" ry="1.12"/>
              <ellipse class="cls-3" cx="602.22" cy="130.71" rx="1.07" ry="1.12"/>
              <ellipse class="cls-3" cx="596.89" cy="130.71" rx="1.07" ry="1.12"/>
              <ellipse class="cls-3" cx="591.56" cy="130.71" rx="1.07" ry="1.12"/>
              <ellipse class="cls-3" cx="586.23" cy="130.71" rx="1.07" ry="1.12"/>
              <ellipse class="cls-3" cx="580.9" cy="130.71" rx="1.07" ry="1.12"/>
              <ellipse class="cls-3" cx="575.57" cy="130.71" rx="1.07" ry="1.12"/>
              <ellipse class="cls-3" cx="570.24" cy="130.71" rx="1.07" ry="1.12"/>
              <ellipse class="cls-3" cx="564.91" cy="130.71" rx="1.07" ry="1.12"/>
              <ellipse class="cls-3" cx="559.58" cy="130.71" rx="1.07" ry="1.12"/>
              <ellipse class="cls-3" cx="554.25" cy="130.71" rx="1.07" ry="1.12"/>
              <ellipse class="cls-3" cx="548.92" cy="130.71" rx="1.07" ry="1.12"/>
              <ellipse class="cls-3" cx="543.59" cy="130.71" rx="1.07" ry="1.12"/>
              <ellipse class="cls-3" cx="538.26" cy="130.71" rx="1.07" ry="1.12"/>
              <ellipse class="cls-3" cx="532.94" cy="130.71" rx="1.07" ry="1.12"/>
              <path class="cls-3" d="m528.67,130.71c0-.41-.22-.75-.53-.95-.18.68-.35,1.36-.5,2.06.57-.02,1.03-.51,1.03-1.11Z"/>
              <ellipse class="cls-3" cx="607.55" cy="125.12" rx="1.07" ry="1.12"/>
              <ellipse class="cls-3" cx="602.22" cy="125.12" rx="1.07" ry="1.12"/>
              <ellipse class="cls-3" cx="596.89" cy="125.12" rx="1.07" ry="1.12"/>
              <ellipse class="cls-3" cx="591.56" cy="125.12" rx="1.07" ry="1.12"/>
              <ellipse class="cls-3" cx="586.23" cy="125.12" rx="1.07" ry="1.12"/>
              <ellipse class="cls-3" cx="580.9" cy="125.12" rx="1.07" ry="1.12"/>
              <ellipse class="cls-3" cx="575.57" cy="125.12" rx="1.07" ry="1.12"/>
              <ellipse class="cls-3" cx="570.24" cy="125.12" rx="1.07" ry="1.12"/>
              <ellipse class="cls-3" cx="564.91" cy="125.12" rx="1.07" ry="1.12"/>
              <ellipse class="cls-3" cx="559.58" cy="125.12" rx="1.07" ry="1.12"/>
              <ellipse class="cls-3" cx="554.25" cy="125.12" rx="1.07" ry="1.12"/>
              <ellipse class="cls-3" cx="548.92" cy="125.12" rx="1.07" ry="1.12"/>
              <ellipse class="cls-3" cx="543.59" cy="125.12" rx="1.07" ry="1.12"/>
              <ellipse class="cls-3" cx="538.26" cy="125.12" rx="1.07" ry="1.12"/>
              <ellipse class="cls-3" cx="532.94" cy="125.12" rx="1.07" ry="1.12"/>
              <ellipse class="cls-3" cx="602.22" cy="119.54" rx="1.07" ry="1.12"/>
              <ellipse class="cls-3" cx="596.89" cy="119.54" rx="1.07" ry="1.12"/>
              <ellipse class="cls-3" cx="591.56" cy="119.54" rx="1.07" ry="1.12"/>
              <ellipse class="cls-3" cx="586.23" cy="119.54" rx="1.07" ry="1.12"/>
              <ellipse class="cls-3" cx="580.9" cy="119.54" rx="1.07" ry="1.12"/>
              <ellipse class="cls-3" cx="575.57" cy="119.54" rx="1.07" ry="1.12"/>
              <ellipse class="cls-3" cx="570.24" cy="119.54" rx="1.07" ry="1.12"/>
              <ellipse class="cls-3" cx="564.91" cy="119.54" rx="1.07" ry="1.12"/>
              <ellipse class="cls-3" cx="559.58" cy="119.54" rx="1.07" ry="1.12"/>
              <ellipse class="cls-3" cx="554.25" cy="119.54" rx="1.07" ry="1.12"/>
              <ellipse class="cls-3" cx="548.92" cy="119.54" rx="1.07" ry="1.12"/>
              <ellipse class="cls-3" cx="543.59" cy="119.54" rx="1.07" ry="1.12"/>
              <ellipse class="cls-3" cx="538.26" cy="119.54" rx="1.07" ry="1.12"/>
              <path class="cls-3" d="m532.94,120.66c.59,0,1.07-.5,1.07-1.12s-.48-1.12-1.07-1.12c-.02,0-.03.01-.05.01-.31.52-.6,1.06-.89,1.6.17.37.53.63.95.63Z"/>
              <path class="cls-3" d="m601.15,113.95c0,.62.48,1.12,1.07,1.12.31,0,.59-.15.78-.38-.42-.58-.86-1.14-1.31-1.7-.32.19-.54.54-.54.95Z"/>
              <ellipse class="cls-3" cx="596.89" cy="113.95" rx="1.07" ry="1.12"/>
              <ellipse class="cls-3" cx="591.56" cy="113.95" rx="1.07" ry="1.12"/>
              <ellipse class="cls-3" cx="586.23" cy="113.95" rx="1.07" ry="1.12"/>
              <ellipse class="cls-3" cx="580.9" cy="113.95" rx="1.07" ry="1.12"/>
              <ellipse class="cls-3" cx="575.57" cy="113.95" rx="1.07" ry="1.12"/>
              <ellipse class="cls-3" cx="570.24" cy="113.95" rx="1.07" ry="1.12"/>
              <ellipse class="cls-3" cx="564.91" cy="113.95" rx="1.07" ry="1.12"/>
              <ellipse class="cls-3" cx="559.58" cy="113.95" rx="1.07" ry="1.12"/>
              <ellipse class="cls-3" cx="554.25" cy="113.95" rx="1.07" ry="1.12"/>
              <ellipse class="cls-3" cx="548.92" cy="113.95" rx="1.07" ry="1.12"/>
              <ellipse class="cls-3" cx="543.59" cy="113.95" rx="1.07" ry="1.12"/>
              <ellipse class="cls-3" cx="538.26" cy="113.95" rx="1.07" ry="1.12"/>
              <path class="cls-3" d="m595.82,108.37c0,.62.48,1.12,1.07,1.12.43,0,.8-.27.97-.66-.5-.47-1.01-.94-1.52-1.38-.3.2-.51.53-.51.93Z"/>
              <ellipse class="cls-3" cx="591.56" cy="108.37" rx="1.07" ry="1.12"/>
              <ellipse class="cls-3" cx="586.23" cy="108.37" rx="1.07" ry="1.12"/>
              <ellipse class="cls-3" cx="580.9" cy="108.37" rx="1.07" ry="1.12"/>
              <ellipse class="cls-3" cx="575.57" cy="108.37" rx="1.07" ry="1.12"/>
              <ellipse class="cls-3" cx="570.24" cy="108.37" rx="1.07" ry="1.12"/>
              <ellipse class="cls-3" cx="564.91" cy="108.37" rx="1.07" ry="1.12"/>
              <ellipse class="cls-3" cx="559.58" cy="108.37" rx="1.07" ry="1.12"/>
              <ellipse class="cls-3" cx="554.25" cy="108.37" rx="1.07" ry="1.12"/>
              <ellipse class="cls-3" cx="548.92" cy="108.37" rx="1.07" ry="1.12"/>
              <ellipse class="cls-3" cx="543.59" cy="108.37" rx="1.07" ry="1.12"/>
              <path class="cls-3" d="m591.56,103.9s.04-.01.05-.01c-.33-.22-.67-.43-1.01-.63.17.38.53.64.96.64Z"/>
              <ellipse class="cls-3" cx="586.23" cy="102.78" rx="1.07" ry="1.12"/>
              <ellipse class="cls-3" cx="580.9" cy="102.78" rx="1.07" ry="1.12"/>
              <ellipse class="cls-3" cx="575.57" cy="102.78" rx="1.07" ry="1.12"/>
              <ellipse class="cls-3" cx="570.24" cy="102.78" rx="1.07" ry="1.12"/>
              <ellipse class="cls-3" cx="564.91" cy="102.78" rx="1.07" ry="1.12"/>
              <ellipse class="cls-3" cx="559.58" cy="102.78" rx="1.07" ry="1.12"/>
              <ellipse class="cls-3" cx="554.25" cy="102.78" rx="1.07" ry="1.12"/>
              <path class="cls-3" d="m548.92,103.9c.59,0,1.07-.5,1.07-1.12,0-.26-.1-.49-.24-.67-.62.33-1.22.68-1.82,1.04.15.44.53.75,1,.75Z"/>
              <path class="cls-3" d="m575.57,98.31c.35,0,.65-.19.84-.46-.61-.11-1.22-.2-1.84-.28.15.43.53.75.99.75Z"/>
              <path class="cls-3" d="m570.24,98.31c.57,0,1.03-.47,1.06-1.06-.7-.04-1.41-.06-2.12-.06,0,.62.48,1.12,1.07,1.12Z"/>
              <path class="cls-3" d="m564.91,98.31c.54,0,.97-.43,1.04-.98-.68.05-1.36.12-2.04.21.14.44.53.77,1,.77Z"/>
            </g>
            <g class="cls-63">
              <path class="cls-3" d="m493.79,283.21h-12.31l-6.15-11.17,6.15-11.17h12.31l6.15,11.17-6.15,11.17Zm-11.69-1.12h11.08l5.54-10.05-5.54-10.05h-11.08l-5.54,10.05,5.54,10.05Z"/>
            </g>
            <g class="cls-65">
              <path class="cls-3" d="m344.64,319.61h-11.4l5.7-10.34,5.7,10.34Zm-10.44-.58h9.49l-4.75-8.61-4.75,8.61Z"/>
            </g>
            <g class="cls-65">
              <path class="cls-3" d="m685.36,167.58h-15.99v-16.76h15.99v16.76Zm-14.92-1.12h13.86v-14.52h-13.86v14.52Z"/>
            </g>
            <ellipse class="cls-4" cx="626.73" cy="246.9" rx="24.52" ry="25.7"/>
            <path class="cls-4" d="m683.77,224.55c-1.41-1.48-3.72-1.48-5.12,0l-6.62,6.94c-1.41,1.48-1.41,3.89,0,5.37,1.41,1.48,3.72,1.48,5.12,0l6.62-6.94c1.41-1.48,1.41-3.89,0-5.37Z"/>
          </g>
        </g>
      </g>
    </g>
  </g>
</svg>